<?xml version="1.0" encoding="UTF-8" standalone="no"?>
<!-- Created with Inkscape (http://www.inkscape.org/) -->

<svg
   width="467.75922"
   height="372.26404"
   viewBox="0 0 123.7613 98.494862"
   version="1.1"
   id="svg5"
   inkscape:version="1.1.2 (b8e25be8, 2022-02-05)"
   sodipodi:docname="Aboutme.svg"
   xmlns:inkscape="http://www.inkscape.org/namespaces/inkscape"
   xmlns:sodipodi="http://sodipodi.sourceforge.net/DTD/sodipodi-0.dtd"
   xmlns="http://www.w3.org/2000/svg"
   xmlns:svg="http://www.w3.org/2000/svg">
  <sodipodi:namedview
     id="namedview7"
     pagecolor="#ffffff"
     bordercolor="#666666"
     borderopacity="1.0"
     inkscape:pageshadow="2"
     inkscape:pageopacity="0.0"
     inkscape:pagecheckerboard="0"
     inkscape:document-units="mm"
     showgrid="false"
     inkscape:zoom="1.0998546"
     inkscape:cx="76.828337"
     inkscape:cy="167.74945"
     inkscape:window-width="1792"
     inkscape:window-height="1067"
     inkscape:window-x="0"
     inkscape:window-y="296"
     inkscape:window-maximized="0"
     inkscape:current-layer="g5336"
     units="px"
     fit-margin-top="0"
     fit-margin-left="0"
     fit-margin-right="0"
     fit-margin-bottom="0"
     inkscape:snap-global="false" />
  <defs
     id="defs2">
    <linearGradient
       id="sw-gradient"
       x1="1.5866785"
       x2="23.291925"
       y1="24.506149"
       y2="2.8009028"
       gradientTransform="matrix(0.27871533,0,0,0.25116788,125.32133,151.99989)"
       gradientUnits="userSpaceOnUse">
      <stop
         id="stop1"
         stop-color="rgba(248, 117, 55, 1)"
         offset="0%" />
      <stop
         id="stop2"
         stop-color="rgba(251, 168, 31, 1)"
         offset="100%" />
    </linearGradient>
    <linearGradient
       id="sw-gradient-3"
       x1="2.5526285"
       x2="21.612726"
       y1="25.009102"
       y2="5.9490042"
       gradientTransform="matrix(0.28903197,0,0,0.24220275,76.916596,163.03884)"
       gradientUnits="userSpaceOnUse">
      <stop
         id="stop1-2"
         stop-color="rgba(248, 117, 55, 1)"
         offset="0%" />
      <stop
         id="stop2-6"
         stop-color="rgba(251, 168, 31, 1)"
         offset="100%" />
    </linearGradient>
  </defs>
  <g
     inkscape:label="Layer 1"
     inkscape:groupmode="layer"
     id="layer1"
     style="display:inline"
     transform="translate(-9.909061,-11.220948)">
    <g
       id="g5336"
       transform="matrix(2.6310202,0.5694933,-0.69076884,2.1691024,13.335817,-333.67037)">
      <g
         id="g20961"
         transform="matrix(0.95603712,0,0,0.95603712,4.5592215,8.7094019)">
        <path
           fill="#08bdba"
           d="m 70.760463,178.78718 c -0.684193,3.26809 -2.959842,5.93123 -5.65157,6.74967 -2.677523,0.81124 -5.773151,-0.2615 -8.604904,-0.88346 -2.854077,-0.6308 -5.444276,-0.81082 -7.886252,-2.21443 -2.435882,-1.42684 -4.715429,-4.06122 -5.082755,-6.79707 -0.367342,-2.73583 1.171453,-5.5499 2.716322,-8.52825 1.544887,-2.97835 3.073525,-6.12983 5.271961,-6.33587 2.176111,-0.21489 5.013882,2.49964 8.125726,4.16868 3.119972,1.68508 6.520101,2.30144 8.683952,4.53093 2.163842,2.2295 3.097454,6.04892 2.42752,9.3098 z"
           id="path2226-2"
           style="display:inline;fill:#2f363d;fill-opacity:1;stroke-width:0.169213" />
        <path
           fill="#08bdba"
           d="m 70.760463,177.72884 c -0.684193,3.26809 -2.959842,5.93123 -5.65157,6.74967 -2.677523,0.81124 -5.773151,-0.2615 -8.604904,-0.88346 -2.854077,-0.6308 -5.444276,-0.81082 -7.886252,-2.21443 -2.435882,-1.42684 -4.715429,-4.06122 -5.082755,-6.79707 -0.367342,-2.73583 1.171453,-5.5499 2.716322,-8.52825 1.544887,-2.97835 3.073525,-6.12983 5.271961,-6.33587 2.176111,-0.21489 5.013882,2.49964 8.125726,4.16868 3.119972,1.68508 6.520101,2.30144 8.683952,4.53093 2.163842,2.2295 3.097454,6.04892 2.42752,9.3098 z"
           id="path2226"
           style="fill:#00ffcc;fill-opacity:1;stroke-width:0.169213" />
        <path
           fill="#08bdba"
           d="m 68.889377,177.00561 c -0.598886,2.65641 -2.5908,4.8211 -4.946916,5.48635 -2.343682,0.65941 -5.053339,-0.21255 -7.532021,-0.7181 -2.498223,-0.51274 -4.765469,-0.65906 -6.902973,-1.79996 -2.132169,-1.15978 -4.127496,-3.30109 -4.449023,-5.52488 -0.321541,-2.22377 1.025393,-4.51114 2.377644,-6.93204 1.352266,-2.4209 2.690309,-4.98252 4.614638,-5.15 1.904788,-0.17467 4.388737,2.03179 7.112588,3.38844 2.730966,1.36969 5.707157,1.87068 7.601213,3.68289 1.894048,1.81221 2.711255,4.91675 2.12485,7.5673 z"
           id="path2226-22"
           style="display:inline;fill:#ffffff;fill-opacity:1;stroke-width:0.142731" />
        <path
           id="path2226-1"
           style="display:inline;fill:#00e2b5;fill-opacity:1;stroke-width:0.169213"
           d="m 51.575201,159.83089 c -0.06928,10e-4 -0.138185,0.005 -0.206189,0.0119 -0.14352,0.0135 -0.284194,0.0398 -0.422196,0.0775 0.59344,0.45768 1.22746,0.88479 1.828829,1.28571 1.74625,1.13771 3.175106,2.09031 4.868436,2.88406 1.519221,0.71213 3.209422,1.2945 5.012098,1.34979 -1.048015,-0.42428 -2.119557,-0.86556 -3.161565,-1.42834 -3.014598,-1.61688 -5.77161,-4.21519 -7.919413,-4.18062 z m 14.222388,6.99285 c 0.0115,0.0648 0.02316,0.12932 0.03617,0.19379 0.108869,1.10956 0.433834,2.20007 0.980302,3.15639 0.853874,1.48005 2.239438,2.64423 3.803386,3.37138 -0.360957,-1.92046 -1.196934,-3.72345 -2.438611,-5.0028 -0.685623,-0.70642 -1.495632,-1.25093 -2.38125,-1.71876 z" />
        <path
           id="path2226-22-2"
           style="display:inline;fill:#b3fff0;fill-opacity:1;stroke-width:0.142731"
           d="m 66.355434,169.17535 c 0.144467,0.39837 0.321294,0.7837 0.530201,1.14928 0.44509,0.77149 1.035293,1.45596 1.719275,2.03864 -0.391932,-1.06255 -0.988962,-2.02777 -1.768885,-2.77399 -0.153082,-0.14647 -0.314071,-0.28344 -0.480591,-0.41393 z" />
        <path
           fill="url(#sw-gradient)"
           d="m 82.631596,156.66238 c 1.799166,1.05833 3.439583,2.77812 4.180416,4.94771 0.767292,2.16958 0.661459,4.81541 -0.582083,6.64104 -1.243542,1.85208 -3.624792,2.8575 -6.006042,3.57187 -2.38125,0.74084 -4.736041,1.16417 -7.011458,0.66146 -2.301875,-0.50271 -4.524375,-1.95791 -5.715,-4.02166 -1.164167,-2.0373 -1.322917,-4.68313 -0.529167,-6.82625 0.820208,-2.11667 2.566459,-3.70417 4.392084,-4.7625 1.799166,-1.05834 3.677708,-1.56105 5.609166,-1.61396 1.905,-0.0529 3.862917,0.34396 5.662084,1.40229 z"
           width="100%"
           height="100%"
           stroke-width="0"
           style="fill:#2f363d;fill-opacity:1"
           id="path96" />
      </g>
      <path
         fill="url(#sw-gradient)"
         d="m 81.833692,156.39556 c 1.720069,1.01181 3.288369,2.65599 3.996633,4.7302 0.733559,2.0742 0.632379,4.60371 -0.556493,6.34908 -1.188873,1.77066 -3.465436,2.73187 -5.741999,3.41484 -2.276564,0.70827 -4.527831,1.11299 -6.703214,0.63238 -2.200678,-0.48061 -4.325471,-1.87184 -5.463753,-3.84486 -1.112986,-1.94773 -1.264757,-4.47724 -0.505903,-6.52615 0.784149,-2.02361 2.45363,-3.54132 4.198995,-4.55312 1.72007,-1.01182 3.516026,-1.49242 5.362571,-1.54301 1.821251,-0.0506 3.693092,0.32884 5.413163,1.34064 z"
         width="100%"
         height="100%"
         stroke-width="0"
         style="display:inline;fill:#00ffcc;fill-opacity:1"
         id="path96-1" />
      <path
         fill="url(#sw-gradient)"
         d="m 80.069707,159.08549 c 1.193105,0.71094 2.280937,1.86622 2.772216,3.32366 0.508825,1.45743 0.438642,3.23479 -0.386005,4.46117 -0.824647,1.24415 -2.403757,1.91955 -3.982869,2.39943 -1.57911,0.49766 -3.140675,0.78204 -4.649603,0.44434 -1.526474,-0.3377 -3.00031,-1.31524 -3.789866,-2.70158 -0.772011,-1.36857 -0.877285,-3.14593 -0.350913,-4.58559 0.543915,-1.42189 1.70193,-2.4883 2.912582,-3.19924 1.193106,-0.71096 2.438849,-1.04865 3.719682,-1.08419 1.263289,-0.0356 2.561669,0.23105 3.754776,0.942 z"
         width="100%"
         height="100%"
         stroke-width="0"
         style="display:inline;fill:#ffffff;fill-opacity:1"
         id="path96-1-9" />
      <path
         id="path96-1-9-4"
         style="display:inline;fill:#d8c8c2;fill-opacity:1;stroke-width:0.102414"
         d="m 74.509864,164.6529 c 0.009,-8.2e-4 0.018,-10e-4 0.027,-0.002 0.0064,-0.003 0.01298,-0.007 0.01955,-0.01 z m 0.027,-0.002 c -0.429583,0.22515 -0.549983,0.82023 -0.633084,1.33282 -0.06492,0.43348 -0.17525,0.85863 -0.402574,1.19806 -0.314268,0.63365 -0.486484,1.49662 -0.136457,2.23239 0.03699,0.0785 0.07949,0.15022 0.126551,0.21595 0.110303,0.0313 0.221049,0.0597 0.332153,0.0843 1.508927,0.3377 3.070586,0.0533 4.649697,-0.44431 0.366896,-0.1115 0.73356,-0.23388 1.090993,-0.37117 0.01911,-0.0983 0.02403,-0.20281 0.01139,-0.31138 -0.05669,-0.60053 -0.355469,-1.14351 -0.638568,-1.65333 -0.303659,-1.09855 -1.142277,-2.07853 -2.121021,-2.2246 -0.527768,-0.0404 -1.058762,-0.13795 -1.584239,-0.10428 -0.232533,0.007 -0.463984,0.0247 -0.694836,0.0455 z" />
      <g
         id="g9723"
         style="display:inline"
         transform="matrix(0.03423033,-0.0089871,0.01090094,0.04151978,70.281974,158.03219)">
        <path
           style="fill:#d8c8c2;fill-opacity:1;stroke:none;stroke-width:0.264583px;stroke-linecap:butt;stroke-linejoin:miter;stroke-opacity:1"
           d="m 82.670101,94.74742 c -4.596657,2.718686 -10.332302,-0.651819 -14.802567,2.465301 -3.713388,2.120626 -7.873399,2.059663 -11.932724,2.54705 -4.305737,1.847889 -6.085781,6.939799 -7.970151,10.927919 -2.84152,5.27845 0.405119,11.02917 -0.299937,16.58738 1.383932,5.29184 2.631561,11.84472 6.010348,15.80591 6.481392,1.5244 10.253763,-5.30654 13.964311,-9.35593 5.14462,-6.54921 9.157912,-14.00683 11.628658,-21.96732"
           id="path3699" />
        <path
           style="fill:#d8c8c2;fill-opacity:1;stroke:none;stroke-width:0.264583px;stroke-linecap:butt;stroke-linejoin:miter;stroke-opacity:1"
           d="m 167.89175,106.14433 c 1.37004,-2.30866 4.34424,-2.42706 6.62902,-3.22689 2.54728,-0.71005 4.40884,1.39198 6.50308,2.40261 1.92447,1.92135 3.94998,3.92224 5.12633,6.42183 0.7177,2.56377 0.82227,5.28647 1.10119,7.93524 -0.12519,2.01335 -1.5685,3.92878 -0.73152,5.8147 -1.01668,2.14768 0.0381,5.07782 -1.96494,6.91147 -1.78207,1.63841 -4.09221,3.39127 -4.88048,-0.0882 -1.77731,-3.14717 -3.40545,-6.42106 -5.79082,-9.16421 -2.25474,-3.35466 -4.84731,-6.50527 -6.37797,-10.29075 -0.69584,-2.27916 -3.29418,-5.17296 -2.0983,-7.40091 0.5349,-0.0924 0.94976,0.33701 1.46377,0.34494"
           id="path2204" />
        <path
           style="font-variation-settings:normal;opacity:1;vector-effect:none;fill:#ebe0d7;fill-opacity:1;stroke:none;stroke-width:0.264583px;stroke-linecap:butt;stroke-linejoin:miter;stroke-miterlimit:4;stroke-dasharray:none;stroke-dashoffset:0;stroke-opacity:1;-inkscape-stroke:none;stop-color:#000000;stop-opacity:1"
           d="m 100.55496,223.00106 c -15.877103,-8.90079 -23.575088,-15.15541 -25.259024,-17.32047 -1.683935,-2.16506 -11.54698,-20.20721 -12.990353,-29.10801 -1.443371,-8.9008 -2.405621,-45.46624 4.330118,-61.34334 6.735738,-15.877094 20.207215,-35.362624 42.820059,-35.603186 22.61283,-0.240562 24.77789,3.127306 28.86745,3.127306 4.08955,0 10.82529,0.481127 18.52328,6.735742 7.69799,6.254612 17.07991,18.523278 19.72609,25.980708 2.64618,7.45742 8.66024,25.9807 6.01405,36.32487 -2.64618,10.34417 -8.66023,24.7779 -10.34417,27.90521 -1.68393,3.1273 -4.81124,7.45742 -5.29236,13.9526 -0.48113,6.49518 0.96224,21.41002 -5.29237,28.62689 -6.25462,7.21686 -61.10277,0.72168 -61.10277,0.72168 z"
           id="path278" />
        <path
           id="path278-2"
           style="font-variation-settings:normal;vector-effect:none;fill:#ffb380;fill-opacity:1;stroke:none;stroke-width:0.999999px;stroke-linecap:butt;stroke-linejoin:miter;stroke-miterlimit:4;stroke-dasharray:none;stroke-dashoffset:0;stroke-opacity:1;-inkscape-stroke:none;stop-color:#000000"
           d="m 583.50586,331.33984 c -12.92391,19.64037 -25.23002,39.57289 -28.03125,47.97657 -3.85746,11.57238 -11.57294,50.14636 -10.28711,61.71875 1.28583,11.57238 -3.85814,51.43355 1.28516,55.29101 5.14325,3.85746 7.71608,12.85858 12.85937,29.57422 5.14326,16.71564 19.28572,63.0051 29.57227,75.86328 10.28655,12.85822 33.43216,28.28839 47.57617,29.57422 7.72422,0.70219 23.77943,-3.18649 37.27734,-6.87109 6.24005,-16.92234 12.31618,-35.04791 16.33399,-50.75391 10.00134,-39.09607 -12.72916,-109.10549 -22.73047,-137.29101 -10.00131,-28.18557 -45.46188,-74.55584 -74.55664,-98.19532 -3.14839,-2.55806 -6.24368,-4.81434 -9.29883,-6.88672 z"
           transform="scale(0.26458333)" />
        <path
           id="path278-5"
           style="fill:#ffb380;stroke:none;stroke-width:0.999999px;stroke-linecap:butt;stroke-linejoin:miter;stroke-opacity:1"
           d="m 343.78906,320.26562 c -44.72979,26.03186 -74.38654,73.876 -91.9375,115.2461 -9.11617,21.48813 -14.48739,53.0126 -17.39453,86.16211 14.84756,1.8123 36.84419,5.40867 52.85352,12.0332 26.36713,10.91055 25.45873,38.1868 32.73242,58.18945 7.27369,20.00262 18.18316,32.73103 30.91211,44.55079 12.72896,11.81975 23.63907,16.36614 40.91406,19.09375 17.27501,2.72764 21.82227,10.91015 21.82227,10.91015 0,0 11.81922,-17.27517 14.54687,-22.73047 2.72765,-5.45525 11.82031,-12.72825 11.82031,-20.00195 0,-7.2737 18.18337,-54.5532 25.45703,-70.00977 7.27371,-15.4566 17.27526,-56.3709 20.91211,-90.01171 3.63685,-33.64082 -10.90963,-77.28246 -25.45703,-99.10352 -14.54736,-21.82107 -27.27628,-20.91174 -58.18945,-31.82227 -16.2037,-5.71894 -34.47051,-9.18838 -58.99219,-12.50586 z"
           transform="scale(0.26458333)" />
        <path
           style="fill:#d38d5f;fill-opacity:1;stroke:none;stroke-width:0.264583px;stroke-linecap:butt;stroke-linejoin:miter;stroke-opacity:1"
           d="m 88.453607,134.04124 c 3.588076,-0.99896 7.112333,-3.55207 10.975593,-2.58111 2.05109,1.04049 4.21616,1.88249 6.19823,3.02434 1.97091,1.22699 1.5506,3.77688 3.55055,4.98184 1.73113,2.26007 4.47522,3.31419 7.28073,3.34052 1.66279,0.64817 4.92595,-0.56524 5.30306,1.13932 -0.83177,1.37163 -2.18215,2.17274 -1.31527,3.99261 0.25021,2.15034 -0.26198,5.24658 -3.01262,5.2164 -2.33364,0.21912 -3.70941,3.01978 -6.19142,2.62417 -2.63002,1.65857 -5.79346,1.59484 -8.77376,1.37455 -3.009847,-0.517 -6.23097,1.60953 -9.01074,0.21334 -1.226291,-1.83786 -3.08746,-2.94426 -4.698874,-4.35022 -1.481932,-1.7978 -3.152508,-3.48446 -4.387392,-5.46076 -0.86466,-1.90561 -1.070822,-4.15808 -1.581576,-6.04788 0.828531,-1.21271 -1.520593,-2.2973 0.419721,-2.69972 1.252083,-1.89279 3.695778,-3.01028 5.243768,-4.7674 z"
           id="path2710" />
        <path
           style="fill:#d38d5f;fill-opacity:1;stroke:none;stroke-width:0.264583px;stroke-linecap:butt;stroke-linejoin:miter;stroke-opacity:1"
           d="m 167.38144,136.42268 c -1.79897,0.38985 -3.08925,1.83428 -4.45791,2.9384 -1.10584,1.49622 -2.77909,2.39945 -4.10788,3.66634 -0.49798,0.89238 -1.72345,1.15667 -1.41547,2.44766 -0.12809,1.91872 0.12657,4.02788 -1.00556,5.70984 -0.65467,2.03189 0.65384,4.03733 2.23165,5.21687 0.96894,0.73388 1.52308,1.89462 2.50542,2.63638 1.08215,1.10404 2.72628,1.30304 3.8058,2.40077 0.95986,0.92735 2.25217,1.9733 3.67535,1.43289 1.51088,-0.52768 3.39102,0.3424 4.67969,-0.83971 0.68426,-0.76746 1.55381,-1.36707 2.36349,-2.05696 1.57803,-0.27787 2.11863,-1.91151 2.84382,-3.10887 0.6898,-0.90105 1.70935,-1.46225 2.08156,-2.61194 0.55464,-1.11603 1.26199,-2.26107 2.44344,-2.79504 0.37507,-1.60512 0.6299,-3.23546 1.00227,-4.84119 -0.38815,-1.57548 -0.98201,-3.24016 -0.47464,-4.85919 -1.01524,-1.74304 -3.35619,-1.92102 -4.53231,-3.50469 -1.90831,0.66409 -3.86919,-0.24726 -5.65319,-0.86471 -1.66321,-0.33507 -3.54854,0.62394 -5.0437,-0.4852 -0.3167,-0.15514 -0.62743,-0.32198 -0.94183,-0.48165 z"
           id="path45" />
        <path
           style="fill:#241c1c;stroke:none;stroke-width:0.264583px;stroke-linecap:butt;stroke-linejoin:miter;stroke-opacity:1"
           d="m 103.76289,143.90721 c 0.30293,-1.37413 -0.53256,-2.69912 -1.34311,-3.67285 -0.93217,-0.13186 -1.21706,-0.33278 -1.11369,-1.20665 -1.25854,-0.68504 -2.442918,-1.59058 -3.854695,-1.93076 -1.005076,-0.25684 -2.480767,-0.27094 -2.693446,-0.71687 -1.463419,-0.15307 -3.114121,-0.18998 -4.467104,0.40765 -1.225273,1.10596 -2.719898,2.3279 -3.075728,3.96184 0.591292,1.46994 -0.897898,2.44141 -0.885531,3.92151 -0.747026,1.63426 0.323109,3.16693 1.25722,4.45548 0.280775,1.8795 1.959011,2.62711 3.673382,2.91332 2.224697,0.37146 4.482204,0.84892 6.741515,0.4653 1.378609,-0.36644 2.839447,-0.49159 3.259567,-2.07865 1.71684,-0.79148 0.57883,-2.90617 2.12344,-3.92332 0.29545,-0.35291 0.37501,-0.801 0.20827,-1.23513"
           id="path2068" />
        <path
           style="fill:#241c1c;fill-opacity:1;stroke:none;stroke-width:0.264583px;stroke-linecap:butt;stroke-linejoin:miter;stroke-opacity:1"
           d="m 165.68041,143.56701 c -0.67241,1.33702 -1.5848,2.56563 -2.02172,4.012 0.0433,1.45918 -0.86119,2.69337 -1.19994,4.06601 -0.012,1.1243 0.20695,2.52746 1.31691,3.08834 0.70399,0.14775 1.38091,0.33509 2.04446,0.64341 1.79055,0.68517 3.69291,1.13009 5.6116,1.16118 0.99484,-0.11678 1.88744,-0.75403 2.91618,-0.65529 -0.38529,-1.5114 0.34111,-3.04913 1.16574,-4.28237 0.47785,-1.87122 0.76925,-3.80456 0.76379,-5.7365 -0.20427,-1.36878 -1.72765,-1.83963 -2.40641,-2.90989 -0.71115,-0.85232 -1.90205,-0.47544 -2.85147,-0.65673 -0.78561,-0.30836 -1.53269,-0.74495 -2.4232,-0.44732 -0.91173,0.17462 -1.81713,0.68708 -2.23549,1.54705"
           id="path2136" />
        <path
           style="fill:#dfd3cf;fill-opacity:0.96371;stroke:none;stroke-width:0.264583px;stroke-linecap:butt;stroke-linejoin:miter;stroke-opacity:1"
           d="m 139.04489,133.2714 c -7.75526,3.12666 -6.2679,12.20548 -8.79201,18.53084 -3.95991,6.65828 -7.20316,13.69357 -10.73635,20.58006 -3.34383,5.24578 -7.96033,9.63909 -11.31194,14.78153 0.38261,1.22016 -4.75545,5.79315 -1.67793,3.67089 -5.29246,6.75057 -12.051872,12.52175 -16.161559,20.10308 -0.905604,5.65082 -1.533657,11.65589 -0.944619,17.28804 3.085751,6.27408 8.382818,14.02211 16.149798,13.76896 7.36161,0.25122 13.63102,2.64461 20.16282,5.72724 5.8257,0.79417 10.7357,4.75865 16.85804,4.66993 9.39488,3.12723 18.41945,-4.47981 17.62322,-14.2355 3.46722,-5.53019 2.34776,-12.35245 4.12446,-18.36769 -0.0192,-10.40105 -0.61799,-20.8463 -1.76033,-31.1841 -2.31826,-7.55891 -8.0867,-13.64531 -9.36836,-21.60416 -3.31935,-6.45334 -5.81665,-13.19853 -7.62371,-20.2236 -1.87436,-4.43218 -2.2197,-10.85944 -6.54153,-13.50552 z"
           id="path4129" />
        <path
           style="fill:#6c5353;stroke:none;stroke-width:0.264583px;stroke-linecap:butt;stroke-linejoin:miter;stroke-opacity:1"
           d="m 155.40311,204.47778 c 2.14756,-2.36665 -0.79652,-3.00501 -1.91507,-2.42378 -0.26487,-2.75989 -0.72091,-5.41602 -2.28161,-7.76631 -1.09716,-3.39994 -3.16655,-7.40346 -7.18996,-7.69618 -3.11275,0.25888 -6.90494,-1.04425 -9.46225,1.27636 -1.5651,2.20406 -4.96197,3.46049 -5.03439,6.58708 0.72086,3.24109 -0.80546,5.81762 -2.80835,8.14632 -2.0795,4.2219 3.77632,3.74514 5.67632,5.98408 3.17499,0.87412 6.51265,-0.88892 9.78023,-0.2674 3.96586,0.26032 8.15942,0.11948 11.8142,-1.39632 0.6391,-0.70319 1.98325,-1.33319 1.42088,-2.44385 z"
           id="path4263" />
        <path
           id="path4129-7"
           style="display:inline;fill:#5c3e55;fill-opacity:1;stroke:none;stroke-width:0.264583px;stroke-linecap:butt;stroke-linejoin:miter;stroke-opacity:1"
           d="m 151.62795,199.39868 c -3.36181,0.0212 -6.65251,0.94972 -10.02962,0.78907 -4.90746,0.85077 -9.96698,0.0271 -14.78027,1.42579 -3.66746,1.98577 -8.41634,4.29566 -8.61562,9.05912 -1.12611,3.55861 1.04048,7.04729 3.25021,9.6795 2.94783,3.08984 6.88304,5.24762 9.41772,8.7235 1.44059,3.1295 -1.38587,6.28929 -3.66994,8.18963 -2.26937,2.29983 -5.46696,3.06618 -8.57077,2.15364 -3.02129,-0.80927 -8.35996,1.40481 -9.41425,2.9996 3.34236,1.23134 6.97357,0.26222 9.99005,2.28768 2.67715,1.85181 5.65549,3.29035 8.97578,3.33242 3.87721,0.58288 6.8036,4.02548 10.8963,3.8467 4.88804,0.19721 10.72685,2.60063 14.77514,-0.75282 6.72236,-1.76515 1.01589,-8.00016 -1.4509,-11.03575 -1.68609,-2.67848 -5.53744,-7.08686 -2.49875,-9.96035 3.71182,-1.46506 7.17173,-4.17209 8.57301,-7.9934 0.95803,-5.98543 0.56953,-12.31604 -1.2956,-18.08651 -1.30661,-1.96808 -3.66687,-3.58233 -5.55249,-4.65782 z" />
      </g>
      <path
         id="path96-1-1"
         style="display:inline;fill:#00e2b5;fill-opacity:1;stroke-width:0.252951"
         d="m 72.990461,155.66832 c -0.653159,0.23365 -1.297408,0.53424 -1.931226,0.90707 -1.745361,1.01182 -3.414741,2.52952 -4.198896,4.55313 -0.375069,1.01269 -0.52751,2.14247 -0.451557,3.26169 1.722112,-0.20577 3.42509,-0.94515 4.479513,-2.21925 1.239465,-1.46712 1.644281,-3.6424 1.998416,-5.84308 0.03535,-0.21963 0.06982,-0.43966 0.10375,-0.65956 z" />
      <path
         id="path96-1-9-8"
         style="display:inline;fill:#b3fff0;fill-opacity:1;stroke-width:0.252951"
         d="m 72.263627,159.46176 c -1.078003,0.70412 -2.068481,1.69687 -2.559158,2.97958 -0.113343,0.31001 -0.19705,0.63546 -0.251469,0.96932 0.556751,-0.33065 1.054292,-0.73869 1.456942,-1.22523 0.635518,-0.75225 1.051344,-1.69112 1.353685,-2.72367 z" />
      <path
         fill="url(#sw-gradient)"
         d="m 67.345557,144.84116 c 1.922428,0.80943 3.465434,2.5801 4.097814,4.57842 0.607084,1.99831 0.278245,4.22429 -0.07591,6.42496 -0.354135,2.20068 -0.758854,4.37606 -1.998318,5.84319 -1.214167,1.46711 -3.288376,2.22597 -5.261398,2.27656 -1.947724,0.0759 -3.768975,-0.5312 -5.387871,-1.29006 -1.618886,-0.75885 -2.984824,-1.66948 -4.654304,-2.75717 -1.66948,-1.11298 -3.617205,-2.42834 -4.047221,-4.09782 -0.430016,-1.64418 0.63238,-3.6425 1.998319,-5.08432 1.365938,-1.41653 2.984824,-2.25126 4.52783,-3.23778 1.543005,-0.9865 2.984824,-2.09949 4.831371,-2.73187 1.846548,-0.60709 4.072518,-0.73356 5.969659,0.0759 z"
         width="100%"
         height="100%"
         stroke-width="0"
         id="path82"
         style="fill:#2f363d;fill-opacity:1" />
      <path
         fill="url(#sw-gradient)"
         d="m 66.839654,144.33525 c 1.922428,0.80944 3.465434,2.58011 4.097814,4.57842 0.607084,1.99831 0.278245,4.22429 -0.07591,6.42497 -0.354136,2.20068 -0.758855,4.37605 -1.998319,5.84318 -1.214167,1.46711 -3.288375,2.22597 -5.261397,2.27656 -1.947725,0.0759 -3.768975,-0.5312 -5.387871,-1.29005 -1.618887,-0.75886 -2.984825,-1.66948 -4.654305,-2.75718 -1.669479,-1.11298 -3.617204,-2.42833 -4.04722,-4.09781 -0.430016,-1.64418 0.63238,-3.6425 1.998318,-5.08432 1.365938,-1.41653 2.984825,-2.25127 4.52783,-3.23778 1.543006,-0.98651 2.984825,-2.0995 4.831372,-2.73188 1.846548,-0.60708 4.072517,-0.73356 5.969658,0.0759 z"
         width="100%"
         height="100%"
         stroke-width="0"
         id="path82-8"
         style="fill:#00ffcc;fill-opacity:1" />
      <path
         fill="url(#sw-gradient)"
         d="m 66.351748,145.91626 c 1.579178,0.71588 2.84668,2.2819 3.366149,4.04926 0.498689,1.76734 0.228565,3.73605 -0.06236,5.68238 -0.290904,1.94632 -0.62336,3.87028 -1.641517,5.16784 -0.99738,1.29756 -2.701237,1.9687 -4.321977,2.01345 -1.599957,0.0671 -3.096024,-0.46981 -4.425866,-1.14096 -1.329835,-0.67115 -2.451885,-1.47653 -3.823279,-2.4385 -1.371394,-0.98436 -2.971353,-2.14768 -3.324589,-3.62421 -0.353237,-1.45415 0.519468,-3.22151 1.641518,-4.49669 1.12205,-1.2528 2.451885,-1.99107 3.719386,-2.86357 1.267503,-0.87248 2.451885,-1.85683 3.968731,-2.41612 1.516847,-0.53693 3.34537,-0.64877 4.903776,0.0671 z"
         width="100%"
         height="100%"
         stroke-width="0"
         id="path82-8-1"
         style="display:inline;fill:#ffffff;fill-opacity:1" />
      <path
         id="path82-8-1-5"
         style="display:inline;fill:#ac9393;fill-opacity:1;stroke-width:0.102414"
         d="m 62.030244,145.66855 c -0.19821,0.053 -0.39276,0.11357 -0.582366,0.18068 -1.516846,0.55929 -2.701149,1.54359 -3.968651,2.41607 -0.718812,0.4948 -1.457706,0.94647 -2.167346,1.47326 l 0.775392,0.99652 4.9939,0.16364 3.338706,3.18494 5.353431,0.75345 c 0.233187,-1.67791 0.374005,-3.34955 -0.05549,-4.87168 -0.51947,-1.76735 -1.786831,-3.33331 -3.366009,-4.04919 l -1.8e-4,4e-5 c -1.363601,-0.6264 -2.93392,-0.61905 -4.321387,-0.24773 z" />
      <path
         style="fill:#ffccaa;fill-opacity:1;stroke:none;stroke-width:0.0360083px;stroke-linecap:butt;stroke-linejoin:miter;stroke-opacity:1"
         d="m 52.117507,175.85345 c -0.06546,1.23131 -0.3259,3.08859 -0.06734,4.94259 0.258556,1.85399 0.31884,2.57853 0.544427,2.80943 0.225586,0.23091 0.61789,0.31411 0.644268,0.13325 0.02637,-0.18088 0.03955,-0.55581 0.03955,-0.55581 0,0 0.0052,0.32008 0.117275,0.26257 0.112096,-0.0575 0.131866,-0.33541 0.131866,-0.33541 0,0 0.559023,0.5045 0.461539,-0.60495 -0.09749,-1.10946 -0.736104,-6.68676 -0.736104,-6.68676 z"
         id="path15703" />
      <path
         id="path2226-22-27"
         style="display:inline;fill:#ffcc00;fill-opacity:1;stroke-width:0.136456"
         d="m 53.598857,171.07297 8.4e-5,2e-4 c -0.5673,0.27181 -1.09658,0.77251 -1.46476,1.70476 -0.906278,2.29475 -1.12064,3.34988 -0.695865,3.82577 0.42478,0.47589 1.218795,0.27564 1.472967,0.1081 0.254171,-0.16755 0.377169,-0.31744 0.377169,-0.31744 0,0 -0.11067,3.22723 0.02863,3.56833 0.08773,0.21476 0.166809,0.90082 0.263588,1.44607 0.523193,-0.007 1.056354,-0.0132 1.603816,-0.003 0.500233,0.009 1.013223,0.0306 1.529277,0.0507 0.392124,-0.21811 0.80939,-0.45026 1.094079,-0.60844 l -4.024235,-9.85395 c -0.06189,0.0242 -0.12361,0.0498 -0.184747,0.0792 z" />
      <path
         id="path10558-5"
         style="display:inline;fill:#ffcc00;stroke:none;stroke-width:0.0368984px;stroke-linecap:butt;stroke-linejoin:miter;stroke-opacity:1"
         d="m 53.407624,171.17701 c 0.411355,-0.0744 0.90223,0.0555 1.497023,0.61915 1.464114,1.38728 2.03262,2.13042 2.019375,2.73669 -0.01324,0.60628 -0.510663,0.85684 -0.714791,0.85331 -0.204128,-0.004 -0.332848,-0.0609 -0.332848,-0.0609 0,0 1.457145,2.55608 1.533068,2.90477 0.0759,0.34869 0.678714,1.64935 0.690287,1.96934 0.01157,0.31999 -0.04655,0.85379 -0.446371,0.88545 -0.312754,0.0248 -1.552822,0.13905 -2.182381,0.19707 l -2.193277,-10.07298 c 0.04257,-0.0121 0.08564,-0.0234 0.129911,-0.0319 z" />
      <path
         id="path15703-4"
         style="display:inline;fill:#ffccaa;fill-opacity:1;stroke:none;stroke-width:0.032833px;stroke-linecap:butt;stroke-linejoin:miter;stroke-opacity:1"
         d="m 61.977957,172.94975 c 0.650847,0.91216 1.448872,2.04561 2.075277,3.36373 0.831725,1.75016 1.180428,2.40837 1.171678,2.74836 -0.0088,0.33999 -0.192555,0.65874 -0.303675,0.52056 -0.111116,-0.1382 -0.3173,-0.45074 -0.3173,-0.45074 0,0 0.166461,0.27723 0.07089,0.29873 -0.09556,0.0215 -0.254201,-0.20393 -0.254201,-0.20393 0,0 -0.05757,0.78457 -0.588537,-0.22663 -0.03797,-0.0723 -0.08885,-0.17086 -0.146123,-0.28238 -3.8e-5,-0.0512 -0.0018,-0.10003 -0.005,-0.14491 -0.02428,-0.35457 -0.766207,-1.73885 -0.865942,-2.11873 -0.07597,-0.28933 -1.118721,-1.91375 -1.613473,-2.67479 -0.096,-0.19206 -0.120102,-0.2402 -0.190416,-0.38099 0.06619,0.013 0.176283,0.0272 0.31799,0.017 0.158382,-0.0114 0.465065,-0.16332 0.648768,-0.4653 z" />
      <path
         style="fill:#502d16;fill-opacity:1;stroke:none;stroke-width:0.0546499px;stroke-linecap:butt;stroke-linejoin:miter;stroke-opacity:1"
         d="m 59.337077,170.48265 c -0.08312,0.92707 0.01222,1.46783 0.06585,1.8498 0.05364,0.38197 -0.610655,1.40505 -0.983653,1.05035 -0.372997,-0.3547 -0.859114,-0.96258 -0.50807,-1.22449 0.351046,-0.2619 0.493908,-0.073 0.640665,-0.22478 0.146753,-0.15169 0.05338,-0.86269 0.158439,-1.17317 0.105063,-0.31048 0.626765,-0.27771 0.626765,-0.27771 z"
         id="path20391" />
      <path
         id="path10558-9"
         style="display:inline;fill:#1167b1;fill-opacity:1;stroke:none;stroke-width:0.040596px;stroke-linecap:butt;stroke-linejoin:miter;stroke-opacity:1"
         d="m 60.084843,171.63976 0.0012,0.0427 c -0.03478,0.007 -0.06963,0.0144 -0.104372,0.0234 -0.511086,0.13325 -1.011308,0.47794 -1.414749,1.23764 -0.993086,1.87003 -1.276554,2.76865 -0.958397,3.27388 0.318155,0.50523 1.016193,0.47898 1.249514,0.37848 0.233323,-0.10051 0.35289,-0.21045 0.35289,-0.21045 0,0 -0.4011,2.85298 -0.314334,3.18347 0.08677,0.33048 0.04236,1.71589 0.188904,1.99142 0.146544,0.27554 0.480167,0.69817 0.95645,0.53387 0.24197,-0.0835 0.92052,-0.31089 1.596033,-0.53681 0.644143,0.041 1.256725,0.0805 1.487387,0.0972 0.505165,0.0368 0.707381,-0.45542 0.770869,-0.75825 0.06348,-0.3028 -0.369903,-1.62615 -0.379499,-1.96666 -0.0096,-0.3405 -1.200488,-2.98664 -1.200488,-2.98664 0,0 0.146213,0.0754 0.399332,0.11275 0.253117,0.0373 0.932932,-0.11547 1.096976,-0.68334 0.164042,-0.56787 -0.362377,-1.36131 -1.846386,-2.90959 -0.602876,-0.62898 -1.181998,-0.83328 -1.71194,-0.83141 -0.05713,2e-4 -0.113405,0.003 -0.16936,0.008 z" />
      <ellipse
         style="fill:#ffccaa;fill-opacity:1;stroke:none;stroke-width:0.158012;stroke-miterlimit:4;stroke-dasharray:none;stroke-opacity:1"
         id="path18529"
         cx="14.640751"
         cy="179.00467"
         rx="1.3534863"
         ry="2.1068687"
         transform="rotate(-14.710872)" />
      <path
         style="fill:#502d16;stroke:none;stroke-width:0.0546499px;stroke-linecap:butt;stroke-linejoin:miter;stroke-opacity:1"
         d="m 59.41966,167.06626 c -0.392736,0.10311 -0.902486,0.29352 -0.42637,0.50799 0.476115,0.21446 -0.265986,-0.83543 0.938334,0.37601 1.204319,1.21142 1.478092,1.36586 1.323547,2.19853 -0.154547,0.83268 -0.644292,1.80994 -0.140383,2.13027 0.503909,0.32032 0.995869,0.41747 1.245741,0.12555 0.249876,-0.29191 0.690142,-0.74698 0.388576,-1.00727 -0.301567,-0.2603 -0.896644,-0.21722 -0.896644,-0.21722 0,0 -0.418581,-0.17299 -0.327412,-0.5364 0.09117,-0.36341 0.152331,-1.90709 -0.10365,-2.34908 -0.255982,-0.442 -1.144837,-1.34021 -1.478091,-1.36587 -0.333255,-0.0256 -0.523648,0.13749 -0.523648,0.13749 z"
         id="path20323" />
      <path
         style="fill:#552200;fill-opacity:1;stroke:none;stroke-width:0.0546499px;stroke-linecap:butt;stroke-linejoin:miter;stroke-opacity:1"
         d="m 58.915085,167.32709 c -0.305024,0.22011 -0.616341,0.54189 -0.664691,0.73462 -0.04835,0.19272 -0.114192,0.57008 -0.137976,0.85637 -0.02379,0.2863 0.0956,1.05508 0.160164,1.23817 0.06455,0.1831 0.373906,0.48193 0.386579,0.71865 0.01268,0.23671 0.122133,0.52804 -0.04335,0.6515 -0.165484,0.12346 0.166956,0.19621 0.234958,0.0783 0.068,-0.11787 0.05318,-0.61406 -0.04156,-0.84924 -0.09472,-0.23518 -0.469415,-1.09697 -0.456147,-1.3605 0.01327,-0.26353 -0.171283,-0.71516 0.05798,-1.03541 0.229263,-0.32023 0.43327,-0.67385 0.558071,-0.82663 0.124803,-0.1528 0.06378,-0.19678 -0.05404,-0.20586 z"
         id="path20572" />
      <g
         id="g13888"
         transform="matrix(0.10600116,-0.07718113,0.08321137,0.15950932,33.728109,161.2112)">
        <path
           style="fill:#784421;fill-opacity:1;stroke:none;stroke-width:0.264583px;stroke-linecap:butt;stroke-linejoin:miter;stroke-opacity:1"
           d="m 115.59009,85.820529 c 1.50351,-0.481126 3.06716,-3.608432 -1.86436,-2.345481 -4.93152,1.262952 -6.31475,2.345481 -7.21686,3.488151 -0.90211,1.142669 -3.66857,4.330117 -4.51054,6.374894 -0.84197,2.04478 -2.405622,5.53293 -3.969275,7.337147 -1.563653,1.80421 -5.172085,5.95391 -6.435037,6.6756 -1.262951,0.72168 -2.104916,1.44337 -0.962247,1.92449 1.142669,0.48113 1.503513,0.36084 3.247588,0.42099 1.744075,0.0601 5.051804,-0.96225 5.833631,-1.44338 0.78183,-0.48112 2.46576,-1.44337 2.40562,-2.10492 -0.0601,-0.66154 13.47148,-20.327491 13.47148,-20.327491 z"
           id="path8637" />
        <path
           style="fill:#ffccaa;fill-opacity:1;stroke:none;stroke-width:0.276969px;stroke-linecap:butt;stroke-linejoin:miter;stroke-opacity:1"
           d="m 98.999999,103.21206 c 3.402061,-14.16657 11.907211,-20.131444 18.030931,-17.894617 6.12371,2.236827 8.16494,5.964873 7.82474,11.556941 -0.34021,5.592066 -7.48454,17.894616 -15.30928,16.403406 -7.82474,-1.49123 -9.865978,-5.59207 -10.546391,-10.06573 z"
           id="path5843" />
        <path
           id="path8637-8"
           style="display:inline;fill:#502d16;fill-opacity:1;stroke:none;stroke-width:0.264583px;stroke-linecap:butt;stroke-linejoin:miter;stroke-opacity:1"
           d="m 115.58659,83.706792 c -0.47842,0.0098 -1.09032,0.100319 -1.86088,0.297656 -4.93151,1.262952 -6.31501,2.345489 -7.21712,3.488158 -0.90211,1.14267 -3.66835,4.330026 -4.51032,6.374805 -0.84198,2.044779 -2.405618,5.5328 -3.969271,7.337019 -1.563653,1.80421 -5.172313,5.95388 -6.435267,6.67557 -1.262949,0.72168 -2.104882,1.44331 -0.962213,1.92442 1.142667,0.48114 1.503789,0.36102 3.247864,0.42117 1.744075,0.0601 5.051406,-0.96219 5.833234,-1.44333 0.205534,-0.12647 0.473883,-0.28734 0.756023,-0.46612 -0.801592,-1.40781 -1.224071,-2.96688 -1.468641,-4.57491 3.313811,-13.799082 11.469011,-19.8149 17.549321,-18.050582 0.73271,-0.814019 0.92245,-2.022514 -0.96273,-1.983856 z" />
        <path
           style="fill:#803300;stroke:none;stroke-width:0.264583px;stroke-linecap:butt;stroke-linejoin:miter;stroke-opacity:1"
           d="m 104.37388,101.18643 c 0.0775,-0.34282 0.37453,-0.39073 0.60141,-0.6014 0.26148,-0.24281 0.0698,-0.22505 0.36084,-0.36085 0.23945,-0.11174 0.45301,-0.0711 0.66155,-0.240558 0.36307,-0.295 0.56075,-0.73905 1.08252,-0.691615 0.15106,0.01373 0.30924,0.0063 0.45106,0.06014 0.17682,0.06707 0.34739,0.166974 0.48112,0.300702 0.21395,0.21395 0.57326,0.740241 0.96225,0.691621 1.17318,-0.14665 -0.22779,0.057 0.84197,-0.2105 0.1074,-0.0269 0.22051,-0.0201 0.33077,-0.0301 0.18042,-0.0501 0.36292,-0.0933 0.54126,-0.150347 0.43498,-0.139192 0.70748,-0.330774 1.20282,-0.330774 0.99238,0 0.41272,0.375714 1.02239,0.511191 0.11903,0.0265 0.24127,0.0362 0.36084,0.0601 0.22174,0.0444 0.43739,0.12047 0.66154,0.15036 0.12535,0.0167 0.42573,-0.0253 0.5112,-0.0301 0.20844,-0.0116 0.46376,-0.014 0.66154,0.0601 0.0338,0.0127 0.0565,0.047 0.0902,0.0601 0.16842,0.0655 0.38936,0.047 0.5112,0.18042 0.23019,0.25211 0.4859,0.48909 0.66155,0.78183 0.14425,0.24042 0.19064,0.41782 0.39091,0.6014 0.12192,0.11176 0.30204,0.29917 0.48112,0.33077 0.45547,0.0804 0.26914,-0.0881 0.48113,0.18043 0.11058,0.14007 0.2441,0.26498 0.33077,0.42098 0.0662,0.11918 0.0815,0.2602 0.12028,0.39091 0.15862,0.53534 0.20995,1.15804 0.12028,1.71401 -0.0342,0.21182 -0.18641,0.47862 -0.33077,0.63147 -0.30441,0.32232 -0.21596,0.16974 -0.51119,0.33078 -0.1975,0.10772 -0.21271,0.27063 -0.48113,0.27063 -0.73914,0 -0.76611,-1.26204 -1.08253,-1.68394 -0.20789,-0.27718 -0.59672,-0.50101 -0.87204,-0.69161 -0.15404,-0.10665 -1.58241,-0.80654 -1.77414,-0.75176 -0.0305,0.009 -0.006,0.0691 -0.0301,0.0902 -0.0707,0.0628 -0.15448,0.11122 -0.24056,0.15035 -0.0274,0.0124 -0.0626,-0.0118 -0.0902,0 -0.0461,0.0197 -0.0742,0.0705 -0.12028,0.0902 -0.30996,0.13284 -1.04907,0.1763 -1.35316,0.12028 -0.19038,-0.0351 -0.35803,-0.14802 -0.54126,-0.21049 -0.25808,-0.088 -0.52157,-0.15923 -0.78183,-0.24056 -0.0605,-0.0189 -0.12849,-0.0238 -0.18042,-0.0601 -0.1366,-0.0956 -0.17993,-0.34267 -0.36084,-0.39092 -0.13703,-0.0365 -0.58764,0.0748 -0.63148,0.0601 -0.0343,-0.0114 -0.0333,-0.066 -0.0601,-0.0902 -0.0745,-0.067 -0.16513,-0.11441 -0.24056,-0.18042 -0.008,-0.007 0.008,-0.0238 0,-0.0301 -0.0955,-0.0764 -0.2073,-0.13146 -0.30071,-0.21049 -0.25642,-0.21698 -0.33952,-0.623 -0.63147,-0.84196 -0.12078,-0.0906 -0.27939,-0.11889 -0.42098,-0.15036 -0.0419,-0.009 -0.14179,0.036 -0.15036,0.0301 -0.27683,-0.19165 -0.59107,-0.9021 -0.9021,-0.9021 -0.16193,0 -0.69456,0.0657 -0.87204,0.12028 -0.11604,0.0357 -0.30454,0.18426 -0.39091,0.27063 -0.0454,0.0454 -0.072,0.10809 -0.12029,0.15035 -0.0337,0.0295 -0.0858,0.0314 -0.12028,0.0601 -0.0278,0.0231 -0.044,0.0579 -0.0601,0.0902 -0.004,0.009 0.009,0.0256 0,0.0301 -0.085,0.0425 -0.18234,0.0549 -0.27063,0.0902 z"
           id="path6046" />
        <path
           id="path5843-4"
           style="display:inline;opacity:1;fill:#803300;fill-opacity:1;stroke:none;stroke-width:0.276968px;stroke-linecap:butt;stroke-linejoin:miter;stroke-opacity:1"
           d="m 100.40708,99.568014 c -0.16382,0.007 -0.15446,0.10425 -0.33641,0.0331 -0.005,-0.002 -0.0107,-0.004 -0.016,-0.006 -0.391525,1.160036 -0.746188,2.388406 -1.057822,3.686076 0.680413,4.47366 2.721912,8.57431 10.546652,10.06554 2.99233,0.57026 5.88457,-0.87764 8.33541,-3.19516 -0.0305,0.002 -0.0643,0.0299 -0.0966,0.0346 -0.24885,0.0369 -0.41024,0.0599 -0.54932,0.0796 0.0118,0.008 -0.13945,0.0492 -0.68368,0.16123 -0.15831,0.0325 -0.32262,0.0282 -0.48111,0.0599 -0.044,0.009 -0.0772,0.048 -0.12041,0.06 -0.28149,0.0782 -0.69875,0.19314 -0.99218,0.0904 -0.44989,-0.15746 -0.4074,-0.14561 -0.72193,-0.48111 -0.0535,-0.0571 -0.0827,-0.14115 -0.15037,-0.18035 -0.20661,-0.11961 -0.80518,-0.24065 -0.99219,-0.30075 -0.37424,-0.12029 -0.738,-0.272 -1.11259,-0.39119 -0.0675,-0.0211 -0.14393,-0.005 -0.21033,-0.03 -0.0966,-0.0362 -0.17778,-0.10557 -0.27078,-0.15038 -1.04249,-0.50193 -0.0283,0.0658 -1.38338,-0.69143 -0.12619,-0.0705 -0.21791,-0.21831 -0.3607,-0.24081 -0.12909,-0.0203 -0.26309,0.002 -0.39067,0.0305 -0.21212,0.0471 -0.10305,0.21432 -0.3912,0.06 -0.27712,-0.14845 -1.69082,-1.28399 -1.80402,-1.41335 -0.0806,-0.0921 -0.12434,-0.21426 -0.21084,-0.30076 -0.13795,-0.13792 -0.54635,-0.13615 -0.69143,-0.18035 -0.30475,-0.0927 -0.5687,-0.29257 -0.87178,-0.39067 -0.49744,-0.16093 -0.47146,0.0108 -0.93224,-0.27079 -0.0499,-0.0305 -0.0643,-0.0981 -0.0904,-0.15038 -0.0541,-0.10833 -0.0962,-0.22241 -0.15038,-0.33073 -0.22467,-0.44933 -0.46756,-0.88806 -0.66146,-1.3534 -0.0731,-0.17556 -0.12805,-0.35819 -0.18035,-0.54106 -0.0168,-0.0586 0.007,-0.13225 -0.03,-0.18035 -0.0413,-0.0531 -0.12135,-0.0582 -0.18035,-0.0904 -0.16154,-0.0881 -0.32851,-0.16872 -0.48162,-0.27078 -0.33207,-0.22139 -0.61096,-0.58737 -0.81184,-0.93173 -0.15181,-0.26024 -0.22225,-0.56337 -0.33073,-0.84233 -0.078,-0.20049 -0.1728,-0.39841 -0.2403,-0.60099 -0.0873,-0.26197 -0.0739,-0.415591 -0.30076,-0.571536 -0.11911,-0.0819 -0.22077,-0.20452 -0.3607,-0.24082 -0.10664,-0.0276 -0.18052,-0.0353 -0.23513,-0.0331 z M 117.22312,110.264 c -0.0933,-0.003 -0.74621,0.10825 0.009,0.002 -10e-4,-8.4e-4 -0.005,-0.001 -0.009,-0.002 z" />
        <path
           style="fill:#784421;stroke:none;stroke-width:0.264583px;stroke-linecap:butt;stroke-linejoin:miter;stroke-opacity:1"
           d="m 124.91187,94.420623 c -3.00703,-4.209836 -7.15672,-6.795879 -9.68263,-7.09658 -2.5259,-0.300705 -1.14266,-2.886747 2.82661,-2.285341 3.96928,0.601405 7.63784,1.984636 7.87841,3.848994 0.24056,1.864354 -0.90211,5.172085 -1.02239,5.532927 z"
           id="path8534" />
        <path
           style="fill:#502d16;fill-opacity:1;stroke:none;stroke-width:0.264583px;stroke-linecap:butt;stroke-linejoin:miter;stroke-opacity:1"
           d="m 104.56018,89.789803 c -3.78885,-1.323091 -5.172089,-2.525903 -5.653213,-3.187448 -0.481124,-0.661546 -1.082529,-1.383231 -1.383231,-0.962248 -0.300704,0.420984 -1.202812,2.225199 -1.082529,2.646183 0.120279,0.420984 -0.06014,2.104919 0.962247,2.586043 1.022389,0.481123 2.826606,1.744075 3.848996,1.443373 1.02239,-0.300704 4.08956,-1.383234 4.08956,-1.383234 z"
           id="path9191" />
        <path
           style="fill:#784421;fill-opacity:1;stroke:none;stroke-width:0.264583px;stroke-linecap:butt;stroke-linejoin:miter;stroke-opacity:1"
           d="m 116.67262,84.918422 c -1.08253,0.902105 -4.57068,2.58604 -6.13433,2.946884 -1.56366,0.360844 -2.88675,2.345481 -4.02942,2.946887 -1.14267,0.601403 -2.40562,1.864355 -3.60843,3.788852 -1.20281,1.924497 -3.12731,4.811241 -2.64619,6.555315 0.48113,1.74408 1.44338,5.47279 0.0601,6.13434 -1.383227,0.66154 -3.608426,-1.08253 -3.127303,-2.58605 0.481124,-1.50351 3.127303,-9.141355 4.330123,-11.125995 1.20281,-1.984637 5.29236,-7.878408 7.39728,-8.11897 2.10492,-0.240561 7.51757,-0.721685 7.51757,-0.721685 z"
           id="path8820" />
      </g>
      <g
         id="g13729"
         transform="matrix(0.16013294,-0.07699191,0.08068473,0.19756889,8.550764,173.41321)">
        <path
           style="fill:#b578a2;fill-opacity:1;stroke:#b578a2;stroke-width:0.381259;stroke-linecap:butt;stroke-linejoin:miter;stroke-miterlimit:4;stroke-dasharray:none;stroke-opacity:1"
           d="m 250.60557,98.210911 c -4.50101,-0.11177 -6.17281,-0.894171 -7.97321,0.894167 -1.8004,1.788342 -3.98661,3.800212 -4.62961,5.700322 -0.643,1.90012 -1.6718,4.13554 -0.3858,5.14148 1.286,1.00594 3.60081,2.12365 4.11521,1.5648 0.5144,-0.55886 1.15739,-1.22949 1.15739,-1.22949 0,0 -1.80039,2.45897 -3.34359,4.80617 -1.54321,2.34719 -3.98661,8.60638 -3.47221,10.8418 0.5144,2.23542 0.2572,3.01782 2.44341,4.02376 2.1862,1.00594 5.78701,2.57074 8.61621,-0.22354 2.8292,-2.79428 6.1728,-9.94764 6.43,-12.63014 0.2572,-2.68251 0.51441,-5.81211 0.51441,-5.81211 0,0 -0.25721,3.57669 2.05759,3.68846 2.31481,0.11177 5.91561,-1.56481 5.78701,-3.46491 -0.1286,-1.90011 0.1286,-7.60045 -2.1862,-9.50055 -2.31481,-1.90011 -9.13061,-3.800219 -9.13061,-3.800219 z"
           id="path10226" />
        <ellipse
           style="opacity:1;fill:#ffe6d5;fill-opacity:1;stroke:none;stroke-width:0.459242;stroke-miterlimit:4;stroke-dasharray:none;stroke-opacity:1"
           id="path11957"
           cx="269.30649"
           cy="-12.781602"
           rx="6.3503613"
           ry="6.6207142"
           transform="matrix(0.91929042,0.39357989,-0.50305458,0.86425464,0,0)" />
        <path
           style="fill:#794c24;fill-opacity:1;stroke:none;stroke-width:0.131862px;stroke-linecap:butt;stroke-linejoin:miter;stroke-opacity:1"
           d="m 255.70135,88.836104 c 0.35365,-0.3912 1.51106,-1.327283 0.99665,-2.500881 -0.5144,-1.173597 -0.80375,-1.522882 -0.7716,-1.760395 0.0322,-0.237515 0.28935,-0.69857 0.65908,-0.391199 0.36972,0.307371 0.36972,0.600769 0.86804,0.964025 0.49833,0.363257 0.59478,0.558857 0.98059,0.209571 0.38579,-0.349284 1.70394,-1.187567 1.83254,-1.285367 0.1286,-0.0978 0.36973,-0.307371 0.61086,-0.181629 0.24112,0.125743 0.22505,0.265457 0.14467,0.419142 -0.0804,0.153684 -0.49833,0.614741 -0.96451,1.257425 -0.46616,0.642686 -1.15739,1.10374 -1.30207,1.480969 -0.14467,0.377228 -0.36972,0.656656 -0.30542,1.201539 0.0643,0.544885 0.85197,1.117713 -0.17683,1.578769 -1.02879,0.461057 -2.572,-0.991969 -2.572,-0.991969 z"
           id="path12621" />
        <path
           style="fill:#ff00ff;stroke:none;stroke-width:0.131862px;stroke-linecap:butt;stroke-linejoin:miter;stroke-opacity:1"
           d="m 255.76564,88.780217 c 0.0321,-0.293399 0.11253,-0.488999 0.22506,-0.656654 0.11252,-0.167657 0.14467,-0.153686 0.53048,-0.111771 0.3858,0.04191 2.45947,0.838283 2.49162,0.991969 0.0322,0.153685 0.1286,0.237513 0.0322,0.349284 -0.0964,0.111771 -0.41794,0.293402 -0.41794,0.293402 l -2.89351,-0.810343 z"
           id="path13576" />
        <path
           id="path11957-0"
           style="display:inline;fill:#552200;fill-opacity:1;stroke:none;stroke-width:0.457514;stroke-miterlimit:4;stroke-dasharray:none;stroke-opacity:1"
           d="m 254.7783,88.484622 a 6.0537404,6.8929802 62.34862 0 0 -4.92863,2.042308 c 2.79057,4.37e-4 5.91422,0.533891 6.98119,1.090303 1.27799,0.666439 2.50278,2.417648 3.85484,4.430114 a 6.0537404,6.8929802 62.34862 0 0 -3.04458,-7.045067 6.0537404,6.8929802 62.34862 0 0 -2.86282,-0.517658 z" />
      </g>
      <path
         style="fill:#ffccaa;fill-opacity:1;stroke:none;stroke-width:0.0345103px;stroke-linecap:butt;stroke-linejoin:miter;stroke-opacity:1"
         d="m 58.640637,176.7707 c -0.483978,-0.24566 -0.707036,-0.39855 -0.833773,-0.10226 -0.126741,0.29631 -0.253943,0.72539 -0.155946,0.69655 0.098,-0.0288 0.178612,-0.0564 0.139245,0.10111 -0.03937,0.15757 -0.263619,0.67737 -0.08294,0.85529 0.180682,0.1779 0.554547,0.43996 0.817811,0.36 0.263266,-0.0799 0.290046,-0.11714 0.290046,-0.11714 0,0 0.06378,-0.67697 -0.174443,-1.79349 z"
         id="path13923" />
      <path
         style="fill:#00ab89;fill-opacity:1;stroke:none;stroke-width:0.137188px;stroke-linecap:butt;stroke-linejoin:miter;stroke-opacity:1"
         d="m 62.064479,151.4946 c -0.0099,0.0147 -0.0161,0.0342 -0.02972,0.044 -0.01563,0.0109 -0.03956,-0.012 -0.05696,-0.005 -0.03724,0.0151 -0.0759,0.0398 -0.117782,0.016 -0.03554,-0.0203 -0.05669,-0.10983 -0.08752,-0.10799 -0.104725,0.007 -0.115443,0.10181 -0.146671,0.20709 -0.0072,0.0245 -0.03894,0.0528 -0.02255,0.0729 0.03704,0.0457 0.04484,0.02 0.07898,0.0118 0.007,-0.002 0.01466,0.008 0.02202,0.007 0.0054,-1.1e-4 0.0076,-0.0111 0.01299,-0.01 0.06289,0.02 0.05567,0.10893 0.105686,0.1405 0.03361,0.0213 0.06439,-0.003 0.09386,-0.0102 0.07306,-0.0175 0.02412,-0.006 0.06274,-0.0335 0.0068,-0.005 0.0165,-0.002 0.02396,-0.006 0.06527,-0.0317 0.06182,-0.10385 0.0729,-0.17715 0.002,-0.0134 0.01759,-0.0657 0.01155,-0.0765 -0.03148,-0.0563 -0.04843,0.0916 -0.02337,-0.0742 z"
         id="path13079-1-0" />
      <path
         style="fill:#ffccaa;fill-opacity:1;stroke:none;stroke-width:0.102415px;stroke-linecap:butt;stroke-linejoin:miter;stroke-opacity:1"
         d="m 62.997579,157.00155 c 0.03897,0.0663 0.275058,0.28421 0.240312,0.37428 -0.04428,0.11479 -0.232714,0.0905 -0.316427,0.0433 -0.0062,-0.004 -0.05764,-0.0223 -0.06413,-0.0361 -0.01258,-0.0269 -0.01738,-0.0575 -0.02278,-0.0868 -0.0044,-0.0238 -0.0062,-0.0743 0.0078,-0.0948 0.02975,-0.0435 0.06885,-0.0768 0.09988,-0.119 0.0022,-0.003 -0.0042,-0.009 -0.0033,-0.0124 0.0077,-0.0309 0.03963,-0.0488 0.05853,-0.0683 z"
         id="path16428" />
      <path
         style="fill:#000000;fill-opacity:1;stroke:none;stroke-width:0.137188px;stroke-linecap:butt;stroke-linejoin:miter;stroke-opacity:1"
         d="m 62.869881,157.11725 c -0.01504,0.15466 -0.04876,0.3201 -0.04058,0.47091 0.09039,0.0641 0.214535,0.0597 0.31165,0.0529 0.08951,-0.0686 0.221568,-0.0348 0.29345,0.073 0.06046,0.10345 0.181079,0.11382 0.223768,0.23788 0.08697,0.13816 0.06143,-0.13158 0.04771,-0.19803 0.0028,-0.14049 -0.109017,-0.23083 -0.195231,-0.30774 -0.08447,-0.10538 -0.196218,-0.17368 -0.310065,-0.2055 -0.09863,-0.005 -0.153158,0.16023 -0.261482,0.0635 -0.04053,-0.0319 -0.09179,-0.0754 -0.104015,-0.13292"
         id="path13765-8"
         inkscape:transform-center-x="-2.9838327"
         inkscape:transform-center-y="6.8190146" />
      <path
         style="fill:#004565;fill-opacity:1;stroke:none;stroke-width:0.137188px;stroke-linecap:butt;stroke-linejoin:miter;stroke-opacity:1"
         d="m 60.762919,154.69984 c 0.483695,1.10559 2.047514,2.73577 2.047514,2.73577 l 0.328177,-0.42841 -1.320434,-1.8229 z"
         id="path12634"
         inkscape:transform-center-x="-0.76169804"
         inkscape:transform-center-y="2.7420939" />
      <path
         id="path923-9-9-6-0-8"
         style="fill:#457300;fill-opacity:1;stroke:none;stroke-width:0.0447487px;stroke-linecap:butt;stroke-linejoin:miter;stroke-opacity:1"
         d="m 58.760715,153.73156 c 0.0208,-0.0129 0.02381,-0.0742 0.0095,-0.14455 5.38e-4,9.6e-4 0.0027,0.008 0.0027,0.008 -0.214405,-1.96231 -0.52357,-2.61447 -0.705736,-2.49289 -0.006,0.004 -0.011,0.0113 -0.01487,0.02 -0.01144,-0.008 -0.02247,-0.0101 -0.03274,-0.006 -0.211302,0.0908 -0.137635,0.88173 0.673798,2.55042 0,0 -0.0011,-0.006 -0.0011,-0.006 0.0219,0.0523 0.04874,0.0828 0.06753,0.0728 3.58e-4,-2e-4 4.22e-4,-2.2e-4 4.4e-4,-1.6e-4 z" />
      <path
         id="path923-9-9-6-7"
         style="fill:#ffccaa;fill-opacity:1;stroke:none;stroke-width:0.0447487px;stroke-linecap:butt;stroke-linejoin:miter;stroke-opacity:1"
         d="m 58.105329,152.27141 0.435474,-0.15565 c -0.175912,-0.85717 -0.365638,-1.15118 -0.493148,-1.06606 -0.006,0.004 -0.01139,0.0108 -0.01504,0.02 -0.01144,-0.008 -0.02234,-0.0102 -0.03264,-0.006 -0.143378,0.0617 -0.155215,0.44578 0.105323,1.20769 z" />
      <path
         style="fill:#00ffcc;fill-opacity:1;stroke:none;stroke-width:0.137188px;stroke-linecap:butt;stroke-linejoin:miter;stroke-opacity:1"
         d="m 57.761944,150.66467 c 0.01656,-3.7e-4 0.03336,-0.007 0.04965,-9.5e-4 0.01859,0.007 0.02229,0.0418 0.03988,0.0524 0.03737,0.023 0.08179,0.0416 0.09844,0.0925 0.01414,0.0433 -0.02584,0.11641 -0.0012,0.14216 0.0829,0.0869 0.150045,0.0379 0.238922,6.3e-4 0.0206,-0.009 0.06204,0.002 0.06229,-0.0251 5.43e-4,-0.0601 -0.0213,-0.0511 -0.05208,-0.0758 -0.0064,-0.005 -0.0063,-0.0173 -0.01221,-0.0234 -0.0039,-0.005 -0.0126,-7e-5 -0.01548,-0.006 -0.03484,-0.0668 0.02561,-0.11513 0.0078,-0.17784 -0.01201,-0.0422 -0.05036,-0.054 -0.07691,-0.0752 -0.06582,-0.0528 -0.02178,-0.0174 -0.06795,-0.034 -0.0081,-0.003 -0.01372,-0.013 -0.02158,-0.0173 -0.06878,-0.0373 -0.110988,0.01 -0.164852,0.0451 -0.0098,0.007 -0.05402,0.025 -0.05619,0.0368 -0.01135,0.0619 0.09331,-0.0141 -0.02854,0.0658 z"
         id="path13079" />
      <path
         style="fill:#00ffcc;fill-opacity:1;stroke:none;stroke-width:0.137188px;stroke-linecap:butt;stroke-linejoin:miter;stroke-opacity:1"
         d="m 64.319271,153.33387 c 0.01656,-3.7e-4 0.03336,-0.007 0.04965,-9.5e-4 0.01859,0.007 0.02228,0.0418 0.03988,0.0524 0.03737,0.023 0.08179,0.0416 0.09844,0.0925 0.01414,0.0433 -0.02584,0.11642 -0.0012,0.14217 0.0829,0.0869 0.150044,0.0379 0.238922,6.2e-4 0.0206,-0.009 0.06204,0.002 0.0623,-0.025 5.42e-4,-0.0601 -0.0213,-0.0512 -0.05208,-0.0758 -0.0064,-0.005 -0.0063,-0.0173 -0.01221,-0.0234 -0.0039,-0.005 -0.0126,-7e-5 -0.01548,-0.006 -0.03484,-0.0668 0.02561,-0.11513 0.0078,-0.17784 -0.01201,-0.0422 -0.05036,-0.054 -0.07691,-0.0752 -0.06582,-0.0528 -0.02178,-0.0174 -0.06795,-0.034 -0.0081,-0.003 -0.01372,-0.013 -0.02158,-0.0173 -0.06878,-0.0373 -0.11099,0.01 -0.164854,0.0451 -0.0098,0.007 -0.05402,0.0249 -0.05619,0.0368 -0.01135,0.0618 0.09331,-0.0141 -0.02854,0.0658 z"
         id="path13079-0" />
      <path
         style="fill:#00b18d;fill-opacity:1;stroke:none;stroke-width:0.137188px;stroke-linecap:butt;stroke-linejoin:miter;stroke-opacity:1"
         d="m 68.1652,154.46291 c 0.01656,-3.7e-4 0.03336,-0.007 0.04965,-9.5e-4 0.01859,0.007 0.02229,0.0418 0.03988,0.0524 0.03737,0.023 0.08179,0.0416 0.09844,0.0925 0.01414,0.0433 -0.02584,0.11642 -0.0012,0.14217 0.0829,0.0869 0.150044,0.0379 0.238922,6.2e-4 0.0206,-0.009 0.06204,0.002 0.06229,-0.025 5.42e-4,-0.0601 -0.0213,-0.0512 -0.05208,-0.0758 -0.0064,-0.005 -0.0063,-0.0173 -0.01221,-0.0234 -0.0039,-0.005 -0.0126,-7e-5 -0.01547,-0.006 -0.03484,-0.0668 0.02561,-0.11513 0.0078,-0.17784 -0.01201,-0.0422 -0.05036,-0.054 -0.07691,-0.0752 -0.06582,-0.0528 -0.02178,-0.0174 -0.06795,-0.034 -0.0081,-0.003 -0.01372,-0.013 -0.02158,-0.0173 -0.06878,-0.0373 -0.110988,0.01 -0.164853,0.0451 -0.0098,0.007 -0.05402,0.0249 -0.05619,0.0368 -0.01135,0.0618 0.09331,-0.0141 -0.02854,0.0658 z"
         id="path13079-6" />
      <path
         style="fill:#00ffcc;fill-opacity:1;stroke:none;stroke-width:0.137188px;stroke-linecap:butt;stroke-linejoin:miter;stroke-opacity:1"
         d="m 61.973489,149.7113 c 0.01656,-3.7e-4 0.03336,-0.007 0.04965,-9.6e-4 0.01859,0.007 0.02229,0.0418 0.03988,0.0524 0.03737,0.023 0.08179,0.0416 0.09844,0.0925 0.01414,0.0433 -0.02584,0.11641 -0.0012,0.14216 0.0829,0.0869 0.150045,0.0379 0.238922,6.3e-4 0.0206,-0.009 0.06204,0.002 0.06229,-0.025 5.43e-4,-0.0601 -0.0213,-0.0512 -0.05207,-0.0758 -0.0064,-0.005 -0.0063,-0.0173 -0.01221,-0.0234 -0.0039,-0.005 -0.0126,-7e-5 -0.01548,-0.006 -0.03484,-0.0668 0.02561,-0.11513 0.0078,-0.17783 -0.01201,-0.0423 -0.05036,-0.054 -0.07691,-0.0752 -0.06582,-0.0528 -0.02178,-0.0174 -0.06795,-0.034 -0.0081,-0.003 -0.01372,-0.013 -0.02158,-0.0173 -0.06878,-0.0373 -0.110988,0.01 -0.164853,0.0451 -0.0098,0.007 -0.05402,0.0249 -0.05619,0.0368 -0.01135,0.0618 0.09331,-0.0141 -0.02854,0.0658 z"
         id="path13079-1" />
      <path
         style="fill:#00ffcc;fill-opacity:1;stroke:none;stroke-width:0.137188px;stroke-linecap:butt;stroke-linejoin:miter;stroke-opacity:1"
         d="m 55.857703,150.10757 c -0.01584,0.005 -0.03088,0.0148 -0.04753,0.0128 -0.019,-0.002 -0.02843,-0.0364 -0.04714,-0.043 -0.0398,-0.0142 -0.08562,-0.0223 -0.110232,-0.0693 -0.02091,-0.04 0.0052,-0.12239 -0.02276,-0.14231 -0.09433,-0.0672 -0.150616,-0.003 -0.229745,0.0557 -0.01846,0.0134 -0.05989,0.0131 -0.05562,0.0398 0.0096,0.0602 0.02893,0.0463 0.06283,0.0635 0.0072,0.004 0.0088,0.0159 0.01557,0.0206 0.0046,0.004 0.012,-0.003 0.01582,0.002 0.04475,0.0586 -0.0052,0.12107 0.02249,0.17951 0.01883,0.0392 0.05752,0.0421 0.08662,0.0571 0.07215,0.0372 0.02385,0.0121 0.07103,0.018 0.0084,9.6e-4 0.01541,0.01 0.02364,0.0122 0.07239,0.021 0.105012,-0.0361 0.150838,-0.0839 0.0083,-0.009 0.0476,-0.0379 0.04779,-0.05 4.74e-4,-0.0644 -0.08732,0.036 0.01634,-0.0724 z"
         id="path13079-9" />
      <path
         style="fill:#ffbe92;fill-opacity:1;stroke:none;stroke-width:0.137188px;stroke-linecap:butt;stroke-linejoin:miter;stroke-opacity:1"
         d="m 58.195031,151.40678 c 0.0096,-0.009 0.05769,-0.0391 0.06583,-0.0685 0.01755,-0.0636 0.11813,-0.34903 0.04567,-0.40951 -0.02474,-0.0205 -0.170312,0.004 -0.150012,0.0447 0.01572,0.0312 0.01119,-0.0746 0.0065,-0.0872 -0.01746,-0.0466 -0.06718,-0.16079 -0.125357,-0.15094 -0.01473,0.002 -0.07459,0.13688 -0.04524,0.13204 0.02347,-0.004 0.0046,-0.0508 0.0043,-0.0581 3.7e-5,-0.004 0.0089,-0.008 0.0058,-0.0106 -0.04874,-0.0459 -0.102637,-0.083 -0.152406,-0.12721 -0.04062,-0.036 -0.07851,-0.0762 -0.117992,-0.11392 -0.0031,-0.003 -0.0069,-0.0101 -0.0096,-0.008 -0.04133,0.0361 0.009,0.16517 0.01913,0.21675 0.01574,0.0791 -0.0024,0.18455 0.03618,0.26172 0.02666,0.0532 0.07762,0.0864 0.10629,0.13505 0.0081,0.0136 0.0098,0.0307 0.01689,0.045 0.02404,0.0482 0.06336,0.14231 0.0757,0.14014 0.01296,-0.003 0.02361,-0.0134 0.03662,-0.0158 0.01601,-0.003 0.04669,0.0309 0.06301,0.0372 0.04774,0.0185 0.05967,0.009 0.118651,0.0373 z"
         id="path9478-6" />
      <path
         id="path923-9-9-6-0-8-7"
         style="fill:#569000;fill-opacity:1;stroke:none;stroke-width:0.0447487px;stroke-linecap:butt;stroke-linejoin:miter;stroke-opacity:1"
         d="m 58.595705,154.0951 c -0.0169,0.019 -0.0068,0.0807 0.02167,0.14621 -7.38e-4,-8.6e-4 -0.0039,-0.007 -0.0039,-0.007 0.617766,1.88366 1.04783,2.43929 1.19421,2.26475 0.0049,-0.006 0.008,-0.0143 0.0098,-0.0243 0.0125,0.005 0.02338,0.004 0.03216,-0.004 0.180407,-0.1526 -0.05655,-0.91562 -1.176196,-2.33129 0,0 0.0021,0.005 0.0024,0.006 -0.0318,-0.0455 -0.06356,-0.0678 -0.07917,-0.0522 -2.95e-4,3.1e-4 -3.52e-4,3.5e-4 -3.77e-4,3e-4 z" />
      <path
         id="path923-9-9-6-7-7"
         style="fill:#ffccaa;fill-opacity:1;stroke:none;stroke-width:0.0447487px;stroke-linecap:butt;stroke-linejoin:miter;stroke-opacity:1"
         d="m 59.523817,155.35001 -0.378461,0.2833 c 0.347557,0.79847 0.589018,1.03405 0.691453,0.91188 0.0049,-0.006 0.0084,-0.014 0.01,-0.0243 0.0125,0.005 0.02325,0.004 0.03209,-0.004 0.122414,-0.10355 0.05231,-0.48823 -0.355038,-1.16715 z" />
      <path
         style="fill:#ffbe92;fill-opacity:1;stroke:none;stroke-width:0.137188px;stroke-linecap:butt;stroke-linejoin:miter;stroke-opacity:1"
         d="m 59.867323,156.64286 c 0.01129,-0.005 0.0656,-0.0195 0.08001,-0.0448 0.03109,-0.0547 0.19224,-0.29367 0.133402,-0.37252 -0.02007,-0.0269 -0.169692,-0.0476 -0.158346,-0.003 0.0089,0.0341 0.02713,-0.067 0.02522,-0.0803 -0.0072,-0.0491 -0.032,-0.17187 -0.09171,-0.18016 -0.01513,-0.002 -0.103423,0.10664 -0.07326,0.11093 0.02409,0.004 0.01544,-0.0465 0.01681,-0.0535 6.97e-4,-0.004 0.01043,-0.005 0.0081,-0.008 -0.03842,-0.058 -0.0839,-0.10919 -0.12373,-0.16585 -0.03255,-0.0461 -0.06144,-0.0955 -0.09248,-0.14295 -0.0025,-0.004 -0.0045,-0.0117 -0.0076,-0.0104 -0.04876,0.0217 -0.02661,0.15852 -0.02766,0.21021 -0.0014,0.0793 -0.04206,0.17336 -0.02044,0.25774 0.01499,0.0582 0.0584,0.10484 0.07633,0.15937 0.0053,0.0152 0.0033,0.0319 0.0071,0.0475 0.01348,0.0527 0.03219,0.1533 0.04491,0.15496 0.01337,0.002 0.02625,-0.006 0.03969,-0.004 0.01655,0.002 0.03967,0.0431 0.05449,0.054 0.04336,0.0317 0.05727,0.0262 0.109637,0.0708 z"
         id="path9478-6-8" />
      <path
         style="fill:#000000;fill-opacity:1;stroke:none;stroke-width:0.137188px;stroke-linecap:butt;stroke-linejoin:miter;stroke-opacity:1"
         d="m 63.955203,154.13926 c 0.133516,0.0227 0.27914,0.0677 0.405691,0.0627 0.03995,-0.10517 0.01641,-0.25247 -0.005,-0.3678 -0.07245,-0.10824 -0.06484,-0.26374 0.01501,-0.34562 0.07808,-0.0684 0.06763,-0.21113 0.165964,-0.2579 0.103267,-0.0988 -0.121338,-0.0769 -0.175473,-0.0627 -0.119539,-0.008 -0.178301,0.12208 -0.229753,0.2219 -0.07588,0.0969 -0.115935,0.22723 -0.124716,0.36122 0.01139,0.11677 0.160252,0.18652 0.0957,0.31187 -0.02059,0.047 -0.04926,0.10649 -0.09611,0.11918"
         id="path13765" />
      <path
         style="fill:#00567d;fill-opacity:1;stroke:none;stroke-width:0.144897px;stroke-linecap:butt;stroke-linejoin:miter;stroke-opacity:1"
         d="m 60.783972,155.2839 c 0.168339,0.0182 1.301661,-0.14206 1.301661,-0.14206 -0.0019,0.0714 0.459129,-0.0282 0.735466,-0.17424 0.324229,-0.19263 0.581468,-0.32333 0.827817,-0.40019 0.166078,-0.14415 0.367135,-0.22728 0.573416,-0.27466 0.01556,-0.21154 -0.07034,-0.43516 -0.192904,-0.59945 -0.164323,-0.12788 -0.338325,-0.006 -0.488542,0.0538 -0.318081,0.13365 -0.63961,0.2641 -0.975765,0.33926 -0.271826,0.0263 -0.549925,-0.0148 -0.822667,0.003 -0.182303,-0.006 -0.363164,-0.0695 -0.538584,-0.14088 -0.100763,-0.0207 -0.202727,-0.0205 -0.300488,-0.002"
         id="path11224"
         sodipodi:nodetypes="ccccccccccc" />
      <path
         id="path923"
         style="font-variation-settings:normal;vector-effect:none;fill:#569000;fill-opacity:1;stroke:none;stroke-width:0.114783px;stroke-linecap:butt;stroke-linejoin:miter;stroke-miterlimit:4;stroke-dasharray:none;stroke-dashoffset:0;stroke-opacity:1;-inkscape-stroke:none;stop-color:#000000"
         d="m 58.255256,153.58696 c -0.0332,0.0212 -0.0566,0.0535 -0.0649,0.0948 -2.95e-4,0.002 -5.33e-4,0.004 -0.0011,0.005 l 3.51e-4,1.3e-4 c -0.01584,0.094 0.05084,0.20201 0.15644,0.2619 -0.0022,0 -0.01158,-0.002 -0.01158,-0.002 1.092928,0.96947 1.94591,1.52793 2.58035,1.79106 0.01044,-0.0504 0.01534,-0.1193 -0.01033,-0.21634 -0.03956,-0.14964 -0.07671,-0.48135 -0.04404,-0.63734 0.03271,-0.15596 0.02493,-0.1803 0.253618,-0.30307 0.228703,-0.12271 0.122887,-0.41296 0.201102,-0.68399 l 0.158371,-0.0284 c -0.650077,-0.27237 -1.656864,-0.41821 -3.102958,-0.31649 0,0 0.0073,0.005 0.0084,0.006 -0.0476,-0.003 -0.09063,0.008 -0.123816,0.0287 z m 3.218322,0.28227 c 0.02403,0.01 0.04742,0.0204 0.07048,0.0309 -0.02301,-0.0104 -0.0465,-0.0208 -0.07048,-0.0309 z m 0.07506,0.0328 c 0.02281,0.0103 0.04539,0.0209 0.06726,0.0316 -0.02196,-0.0107 -0.04434,-0.0212 -0.06726,-0.0316 z m 0.06726,0.0316 c 0.02268,0.0111 0.04468,0.0222 0.06635,0.0336 -0.02163,-0.0114 -0.04371,-0.0226 -0.06635,-0.0336 z m 0.06635,0.0336 c 0.01969,0.0103 0.03892,0.0209 0.05779,0.0316 -0.01886,-0.0106 -0.03811,-0.0212 -0.05779,-0.0316 z m 0.07525,0.0417 c 0.0158,0.009 0.03152,0.0181 0.04672,0.0273 -0.01524,-0.01 -0.0309,-0.0183 -0.04672,-0.0273 z m 0.05177,0.0307 c 0.01769,0.0108 0.03499,0.0219 0.05188,0.033 -0.0169,-0.0111 -0.03419,-0.0222 -0.05188,-0.033 z m 0.05903,0.0377 c 0.01243,0.009 0.02448,0.0164 0.03646,0.0247 -0.01193,-0.009 -0.0241,-0.0165 -0.03646,-0.0247 z m 0.06385,0.0443 c 0.0093,0.007 0.01853,0.0136 0.02758,0.0205 -0.0091,-0.007 -0.01822,-0.0137 -0.02758,-0.0205 z m 0.04134,0.0309 c 0.0148,0.0114 0.02918,0.0229 0.04323,0.0345 -0.01404,-0.0117 -0.02843,-0.0231 -0.04323,-0.0345 z m 0.04609,0.0368 c 0.01556,0.0129 0.0308,0.0261 0.04545,0.0393 -0.01468,-0.0132 -0.02986,-0.0263 -0.04545,-0.0393 z m 0.04545,0.0393 c 0.01486,0.0134 0.02932,0.0268 0.04324,0.0404 -0.01393,-0.0136 -0.02839,-0.0271 -0.04324,-0.0404 z m 0.08347,0.0814 c 0.01298,0.0138 0.02547,0.0277 0.03754,0.0417 -0.01208,-0.014 -0.02453,-0.0279 -0.03754,-0.0417 z m 0.03754,0.0417 c 0.01105,0.0128 0.0218,0.0257 0.03208,0.0387 -0.01027,-0.0129 -0.02104,-0.0259 -0.03208,-0.0387 z m 0.0415,0.0509 c 0.0085,0.011 0.0168,0.022 0.02472,0.0331 -0.0079,-0.0111 -0.01622,-0.0221 -0.02472,-0.0331 z m 0.02703,0.0364 c 0.0088,0.0122 0.01722,0.0245 0.02531,0.0368 -0.008,-0.0124 -0.01659,-0.0246 -0.02531,-0.0368 z m 0.03166,0.0469 c 0.0076,0.0119 0.01484,0.024 0.02183,0.0361 -0.007,-0.0121 -0.01423,-0.0241 -0.02183,-0.0361 z m 0.02391,0.0395 c 0.0082,0.0142 0.01594,0.0284 0.02336,0.0426 -0.0074,-0.0143 -0.01512,-0.0285 -0.02336,-0.0426 z m 0.02336,0.0426 c 0.0076,0.0148 0.01474,0.0296 0.02154,0.0445 -0.0068,-0.0149 -0.01394,-0.0297 -0.02154,-0.0445 z m 0.02154,0.0445 c 0.0066,0.0146 0.01272,0.0294 0.01853,0.0441 -0.0058,-0.0147 -0.01192,-0.0294 -0.01853,-0.0441 z m 0.01907,0.0451 c 0.01166,0.0297 0.02168,0.0596 0.03005,0.0896 -0.0083,-0.03 -0.01843,-0.0599 -0.03005,-0.0896 z m 0.03011,0.0902 c 0.0042,0.0152 0.008,0.0307 0.01144,0.0459 -0.0034,-0.0154 -0.0072,-0.0306 -0.01144,-0.0459 z m 0.01144,0.0459 c 0.0033,0.015 0.0063,0.0301 0.0089,0.0452 -0.0025,-0.015 -0.0055,-0.0302 -0.0089,-0.0452 z m -1.497595,0.94592 c 0.02198,0.01 0.04373,0.0177 0.06517,0.026 -0.02152,-0.009 -0.04313,-0.0169 -0.06517,-0.026 z m 1.506633,-0.89875 c 0.0025,0.0149 0.0046,0.0296 0.0062,0.0445 -0.0017,-0.0149 -0.0038,-0.0296 -0.0062,-0.0445 z m 0.0062,0.0445 c 0.0016,0.0143 0.003,0.0289 0.0039,0.0432 -9.3e-4,-0.0143 -0.0023,-0.0289 -0.0039,-0.0432 z m -1.350323,0.91648 c 0.02582,0.01 0.05128,0.018 0.07628,0.0261 -0.02499,-0.008 -0.05049,-0.0169 -0.07628,-0.0261 z m 1.354511,-0.86371 c 6.33e-4,0.0116 0.0013,0.0231 0.0014,0.0348 -1.76e-4,-0.0116 -8.39e-4,-0.0232 -0.0014,-0.0348 z m 0.0014,0.0427 c 9.3e-5,0.0135 6e-6,0.0271 -5.04e-4,0.0406 5.09e-4,-0.0136 5.96e-4,-0.0271 5.04e-4,-0.0406 z m -1.276615,0.8481 c 0.0245,0.008 0.04855,0.0152 0.07228,0.0221 -0.02374,-0.007 -0.04775,-0.0142 -0.07228,-0.0221 z m 0.07228,0.0221 c 0.02484,0.008 0.04906,0.0138 0.07305,0.0199 -0.02391,-0.006 -0.0483,-0.0126 -0.07305,-0.0199 z m 0.07305,0.0199 c 0.02068,0.006 0.04119,0.0102 0.06123,0.0147 -0.02014,-0.005 -0.04046,-0.01 -0.06123,-0.0147 z m 1.130539,-0.84513 c -5.16e-4,0.0121 -0.0012,0.0241 -0.0022,0.0361 9.56e-4,-0.0121 0.0017,-0.0241 0.0022,-0.0361 z m -0.0033,0.049 c -9.56e-4,0.0103 -0.0022,0.0207 -0.0035,0.0311 0.0013,-0.0103 0.0025,-0.0207 0.0035,-0.0311 z m -0.0054,0.0441 c -0.0021,0.0144 -0.0044,0.0288 -0.0072,0.0432 0.0028,-0.0144 0.0051,-0.0288 0.0072,-0.0432 z m -0.0072,0.0432 c -0.0029,0.0153 -0.0062,0.0308 -0.0099,0.046 0.0036,-0.0153 0.007,-0.0307 0.0099,-0.046 z m -0.0099,0.046 c -0.0026,0.0108 -0.0056,0.0213 -0.0094,0.0311 0.0037,-0.01 0.0067,-0.0202 0.0094,-0.0311 z m -1.024157,0.68182 c 0.0182,0.004 0.03612,0.008 0.0538,0.0106 -0.01761,-0.003 -0.03566,-0.007 -0.0538,-0.0106 z m 1.014625,-0.65059 c -0.0037,0.01 -0.0078,0.0192 -0.01259,0.028 0.0047,-0.009 0.0089,-0.0183 0.01259,-0.028 z m -0.01259,0.028 c -0.0047,0.009 -0.01,0.017 -0.01565,0.0248 0.0057,-0.008 0.01091,-0.016 0.01565,-0.0248 z m -0.01586,0.025 c -0.0057,0.008 -0.01191,0.0153 -0.01865,0.0223 0.0067,-0.007 0.01293,-0.0144 0.01865,-0.0223 z m -0.01865,0.0223 c 0.0037,0.0208 0.0052,0.0418 0.0036,0.0629 0.0015,-0.0211 1.42e-4,-0.0421 -0.0036,-0.0629 z m -0.907223,0.58724 c 0.01848,0.003 0.0366,0.006 0.0545,0.009 -0.0179,-0.003 -0.03602,-0.006 -0.0545,-0.009 z m 0.06587,0.0103 c 0.02029,0.003 0.04033,0.006 0.05986,0.008 -0.01962,-0.002 -0.03948,-0.005 -0.05986,-0.008 z m 0.0602,0.008 c 0.02057,0.002 0.04049,0.003 0.06023,0.004 -0.01963,-9.6e-4 -0.03979,-0.002 -0.06023,-0.004 z m 0.06023,0.004 c 0.01966,9.5e-4 0.03894,0.002 0.05778,0.002 -0.01891,-8e-5 -0.03805,-7.1e-4 -0.05778,-0.002 z m 0.05778,0.002 c 0.01683,6e-5 0.03334,-1.7e-4 0.04951,-8.4e-4 -0.01614,6.7e-4 -0.03272,9e-4 -0.04951,8.4e-4 z m 0.65438,-0.47656 c -0.0029,0.0128 -0.0059,0.0256 -0.0094,0.038 0.0034,-0.0124 0.0065,-0.0251 0.0094,-0.038 z m -0.0095,0.0388 c -0.0038,0.0137 -0.0079,0.027 -0.01243,0.04 0.0045,-0.0131 0.0086,-0.0264 0.01243,-0.04 z m -0.01348,0.0428 c -0.004,0.0115 -0.008,0.0229 -0.01258,0.0339 0.0045,-0.0111 0.0086,-0.0224 0.01258,-0.0339 z m -0.570663,0.3933 c 0.01629,-8.5e-4 0.03221,-0.002 0.04782,-0.004 -0.01562,0.002 -0.03153,0.003 -0.04782,0.004 z m 0.04782,-0.004 c 0.01721,-0.002 0.0342,-0.004 0.05059,-0.007 -0.01645,0.003 -0.03333,0.005 -0.05059,0.007 z m 0.05059,-0.007 c 0.03295,-0.006 0.06414,-0.0123 0.09385,-0.0212 -0.02968,0.009 -0.06094,0.0159 -0.09385,0.0212 z m 0.09385,-0.0212 c 0.01466,-0.005 0.02883,-0.01 0.04272,-0.0144 -0.01388,0.005 -0.02804,0.01 -0.04272,0.0144 z m 0.362661,-0.32065 c -0.0052,0.0121 -0.01056,0.0241 -0.01637,0.0357 0.0057,-0.0116 0.01124,-0.0235 0.01637,-0.0357 z m -0.01637,0.0357 c -0.0062,0.0124 -0.01282,0.0248 -0.0198,0.0365 0.007,-0.0119 0.01357,-0.024 0.0198,-0.0365 z m -0.0198,0.0365 c -0.0063,0.0108 -0.01296,0.0212 -0.01996,0.0315 0.007,-0.0101 0.01363,-0.0207 0.01996,-0.0315 z m -0.02871,0.0434 c -0.0045,0.006 -0.009,0.0123 -0.01375,0.0184 0.0048,-0.006 0.0093,-0.0122 0.01375,-0.0184 z m -0.02241,0.0289 c -0.0068,0.008 -0.0137,0.0161 -0.02093,0.0237 0.0073,-0.008 0.01418,-0.0157 0.02093,-0.0237 z m -0.231157,0.16136 c 0.01211,-0.005 0.02392,-0.01 0.03544,-0.0145 -0.01148,0.005 -0.02337,0.01 -0.03544,0.0145 z m 0.208164,-0.13519 c -0.0083,0.009 -0.017,0.0171 -0.02594,0.0253 0.0089,-0.009 0.01764,-0.0165 0.02594,-0.0253 z m -0.164177,0.11683 c 0.01151,-0.006 0.02277,-0.0109 0.03368,-0.0168 -0.01093,0.006 -0.02217,0.0115 -0.03368,0.0168 z m 0.134914,-0.0883 c -0.01906,0.0171 -0.03947,0.033 -0.06132,0.0474 0.02192,-0.0145 0.0422,-0.0302 0.06132,-0.0474 z m -0.09978,0.0706 c 0.01089,-0.006 0.02161,-0.0125 0.03193,-0.0191 -0.01036,0.007 -0.02092,0.0132 -0.03193,0.0191 z" />
      <g
         id="g389"
         transform="matrix(0.0420904,-0.15464137,0.13538256,0.06475612,36.904546,164.04906)">
        <path
           style="fill:#784421;fill-opacity:1;stroke:none;stroke-width:0.104406px;stroke-linecap:butt;stroke-linejoin:miter;stroke-opacity:1"
           d="m 117.74542,111.2925 c 0.46771,-0.36632 0.65533,-1.82819 -0.91463,-0.75635 -1.56995,1.07185 -1.92747,1.67216 -2.11096,2.24334 -0.18349,0.57118 -0.78222,2.19248 -0.8422,3.12812 -0.06,0.93564 -0.20655,2.54599 -0.54467,3.46345 -0.33812,0.91746 -1.11996,3.02897 -1.47673,3.46733 -0.35676,0.43836 -0.56724,0.82959 -0.11545,0.89961 0.45178,0.07 0.56348,-0.0199 1.17636,-0.1904 0.61287,-0.17055 1.64596,-0.96159 1.8629,-1.2471 0.21695,-0.2855 0.69263,-0.86999 0.59648,-1.13546 -0.0961,-0.26548 2.3689,-9.87254 2.3689,-9.87254 z"
           id="path8637-1" />
        <path
           style="fill:#ffccaa;fill-opacity:1;stroke:none;stroke-width:0.109294px;stroke-linecap:butt;stroke-linejoin:miter;stroke-opacity:1"
           d="m 113.9589,120.30617 c -0.42925,-6.21004 1.84764,-9.61673 4.22996,-9.38201 2.38231,0.23472 3.51565,1.54014 4.03352,3.8792 0.51787,2.33906 -0.56527,8.20114 -3.45385,8.46368 -2.88858,0.26253 -4.06433,-1.19628 -4.80963,-2.96087 z"
           id="path5843-9" />
        <path
           id="path8637-8-0"
           style="display:inline;fill:#502d16;fill-opacity:1;stroke:none;stroke-width:0.104406px;stroke-linecap:butt;stroke-linejoin:miter;stroke-opacity:1"
           d="m 117.50377,110.42315 c -0.16513,0.0576 -0.36746,0.16336 -0.61277,0.33084 -1.56995,1.07184 -1.92755,1.67218 -2.11105,2.24337 -0.18349,0.57118 -0.78215,2.19241 -0.84213,3.12805 -0.06,0.93564 -0.20657,2.54594 -0.54469,3.4634 -0.33811,0.91746 -1.12004,3.02898 -1.4768,3.46735 -0.35677,0.43836 -0.56724,0.82956 -0.11546,0.89958 0.45179,0.07 0.56361,-0.0198 1.17648,-0.19037 0.61287,-0.17055 1.64583,-0.96151 1.86277,-1.24703 0.057,-0.075 0.13198,-0.17129 0.20968,-0.27644 -0.43867,-0.48952 -0.76281,-1.08372 -1.03071,-1.718 -0.41812,-6.04895 1.73138,-9.43741 4.04487,-9.39225 0.16201,-0.41699 0.0905,-0.93549 -0.56019,-0.7085 z" />
        <path
           style="fill:#803300;stroke:none;stroke-width:0.104406px;stroke-linecap:butt;stroke-linejoin:miter;stroke-opacity:1"
           d="m 115.59582,118.87097 c 0.0504,-0.27661 0.22813,-0.49459 0.42153,-0.68157 0.0954,-0.16056 0.15239,-0.41001 0.37733,-0.42317 0.27432,-0.0705 0.42053,0.29098 0.6894,0.24078 0.20372,-0.0731 0.35827,-0.242 0.54933,-0.33869 0.16543,-0.14026 0.33921,-0.32439 0.57484,-0.3126 0.20123,0.20443 0.53371,0.11673 0.7715,0.0337 0.2369,-0.0982 0.52778,-0.0661 0.7036,0.13263 0.18272,0.1683 0.34483,0.40982 0.62782,0.3772 0.23524,0.0297 0.30102,0.30026 0.4092,0.47381 0.0973,0.2216 0.17728,0.47175 0.13728,0.71448 -0.0674,0.19395 -0.17402,0.45371 -0.4136,0.46139 -0.29728,-0.1412 -0.30814,-0.57325 -0.63631,-0.67704 -0.27294,-0.11629 -0.56694,-0.17872 -0.86237,-0.19893 -0.14428,0.17404 -0.31129,0.3516 -0.54796,0.38334 -0.23897,0.006 -0.49797,0.0192 -0.72164,-0.0751 -0.18952,-0.11107 -0.40391,0.0804 -0.57652,-0.11173 -0.17602,-0.17179 -0.35377,-0.33609 -0.61868,-0.31662 -0.14479,-0.11454 -0.31028,-0.32046 -0.51531,-0.15005 -0.2121,0.0924 -0.21428,0.33645 -0.36944,0.46814 z"
           id="path6046-3" />
        <path
           id="path5843-4-2"
           style="display:inline;fill:#803300;fill-opacity:1;stroke:none;stroke-width:0.109293px;stroke-linecap:butt;stroke-linejoin:miter;stroke-opacity:1"
           d="m 114.03334,118.6492 c -0.27435,0.47124 -0.0275,1.05129 -0.0731,1.56536 0.19369,0.72502 0.62632,1.38089 1.12274,1.93651 0.78434,0.83934 1.94506,1.19805 3.07121,1.17768 0.87567,0.0542 1.76195,-0.29108 2.31991,-0.97894 0.33181,-0.37324 0.59115,-0.80506 0.80791,-1.2534 -0.51094,0.29788 -1.01348,0.63797 -1.60028,0.265 -0.53042,0.12547 -1.08313,-0.23616 -1.57162,-0.13721 -0.58346,0.0191 -1.01076,-0.60449 -1.63536,-0.47292 -0.61781,0.0277 -0.69955,-0.72962 -1.15894,-0.99516 -0.56212,-0.13399 -0.67183,-0.74194 -1.07349,-1.06376 -0.0643,-0.028 -0.13775,-0.07 -0.20897,-0.0432 z m 7.05991,2.5182 -0.0886,0.0449 z" />
        <path
           style="fill:#784421;stroke:none;stroke-width:0.104406px;stroke-linecap:butt;stroke-linejoin:miter;stroke-opacity:1"
           d="m 121.9628,113.78742 c -1.52374,-1.39552 -3.25984,-1.99496 -4.17175,-1.83587 -0.91191,0.15909 -0.72542,-1.05987 0.72224,-1.25684 1.44766,-0.19698 2.87976,-0.0386 3.17542,0.7016 0.29566,0.74019 0.27484,2.22917 0.27409,2.39111 z"
           id="path8534-1" />
        <path
           style="fill:#502d16;fill-opacity:1;stroke:none;stroke-width:0.104406px;stroke-linecap:butt;stroke-linejoin:miter;stroke-opacity:1"
           d="m 114.36422,114.16074 c -1.46706,-0.12017 -2.08452,-0.46021 -2.32696,-0.67855 -0.24243,-0.21833 -0.53349,-0.44795 -0.5901,-0.24105 -0.0566,0.20689 -0.16484,1.05028 -0.0752,1.21003 0.0897,0.15975 0.21853,0.87284 0.62852,0.95634 0.40999,0.0835 1.18058,0.40114 1.50164,0.16293 0.32105,-0.23821 1.2637,-1.02706 1.2637,-1.02706 z"
           id="path9191-0" />
        <path
           style="fill:#784421;fill-opacity:1;stroke:none;stroke-width:0.104406px;stroke-linecap:butt;stroke-linejoin:miter;stroke-opacity:1"
           d="m 118.01896,110.8001 c -0.27354,0.4924 -1.29407,1.57585 -1.79636,1.89941 -0.5023,0.32356 -0.73631,1.28832 -1.06495,1.66372 -0.32865,0.37541 -0.62385,1.03648 -0.8229,1.96303 -0.19904,0.92656 -0.53941,2.32985 -0.17385,2.99361 0.36557,0.66377 1.12407,2.09027 0.71865,2.51737 -0.4054,0.42708 -1.377,-0.0414 -1.38084,-0.71392 -0.004,-0.67252 0.0469,-4.11156 0.23909,-5.06285 0.19221,-0.9513 0.94285,-3.83431 1.64691,-4.16898 0.70406,-0.33467 2.53013,-1.13869 2.53013,-1.13869 z"
           id="path8820-0" />
      </g>
    </g>
  </g>
</svg>
